<?xml version="1.0" encoding="utf-8" standalone="no"?>
<!DOCTYPE svg PUBLIC "-//W3C//DTD SVG 1.1//EN"
  "http://www.w3.org/Graphics/SVG/1.1/DTD/svg11.dtd">
<svg xmlns:xlink="http://www.w3.org/1999/xlink" width="385.78125pt" height="289.37625pt" viewBox="0 0 385.78125 289.37625" xmlns="http://www.w3.org/2000/svg" version="1.1">
 <metadata>
  <rdf:RDF xmlns:dc="http://purl.org/dc/elements/1.1/" xmlns:cc="http://creativecommons.org/ns#" xmlns:rdf="http://www.w3.org/1999/02/22-rdf-syntax-ns#">
   <cc:Work>
    <dc:type rdf:resource="http://purl.org/dc/dcmitype/StillImage"/>
    <dc:date>2022-03-31T23:39:11.016354</dc:date>
    <dc:format>image/svg+xml</dc:format>
    <dc:creator>
     <cc:Agent>
      <dc:title>Matplotlib v3.5.1, https://matplotlib.org/</dc:title>
     </cc:Agent>
    </dc:creator>
   </cc:Work>
  </rdf:RDF>
 </metadata>
 <defs>
  <style type="text/css">*{stroke-linejoin: round; stroke-linecap: butt}</style>
 </defs>
 <g id="figure_1">
  <g id="patch_1">
   <path d="M 0 289.37625 
L 385.78125 289.37625 
L 385.78125 0 
L 0 0 
L 0 289.37625 
z
" style="fill: none"/>
  </g>
  <g id="axes_1">
   <g id="patch_2">
    <path d="M 43.78125 251.82 
L 378.58125 251.82 
L 378.58125 7.2 
L 43.78125 7.2 
z
" style="fill: #ffffff"/>
   </g>
   <g id="matplotlib.axis_1">
    <g id="xtick_1">
     <g id="line2d_1">
      <defs>
       <path id="ma0fd404877" d="M 0 0 
L 0 3.5 
" style="stroke: #000000; stroke-width: 0.8"/>
      </defs>
      <g>
       <use xlink:href="#ma0fd404877" x="58.999432" y="251.82" style="stroke: #000000; stroke-width: 0.8"/>
      </g>
     </g>
     <g id="text_1">
      <!-- 0 -->
      <g transform="translate(55.818182 266.418437)scale(0.1 -0.1)">
       <defs>
        <path id="DejaVuSans-30" d="M 2034 4250 
Q 1547 4250 1301 3770 
Q 1056 3291 1056 2328 
Q 1056 1369 1301 889 
Q 1547 409 2034 409 
Q 2525 409 2770 889 
Q 3016 1369 3016 2328 
Q 3016 3291 2770 3770 
Q 2525 4250 2034 4250 
z
M 2034 4750 
Q 2819 4750 3233 4129 
Q 3647 3509 3647 2328 
Q 3647 1150 3233 529 
Q 2819 -91 2034 -91 
Q 1250 -91 836 529 
Q 422 1150 422 2328 
Q 422 3509 836 4129 
Q 1250 4750 2034 4750 
z
" transform="scale(0.015625)"/>
       </defs>
       <use xlink:href="#DejaVuSans-30"/>
      </g>
     </g>
    </g>
    <g id="xtick_2">
     <g id="line2d_2">
      <g>
       <use xlink:href="#ma0fd404877" x="119.994149" y="251.82" style="stroke: #000000; stroke-width: 0.8"/>
      </g>
     </g>
     <g id="text_2">
      <!-- 100 -->
      <g transform="translate(110.450399 266.418437)scale(0.1 -0.1)">
       <defs>
        <path id="DejaVuSans-31" d="M 794 531 
L 1825 531 
L 1825 4091 
L 703 3866 
L 703 4441 
L 1819 4666 
L 2450 4666 
L 2450 531 
L 3481 531 
L 3481 0 
L 794 0 
L 794 531 
z
" transform="scale(0.015625)"/>
       </defs>
       <use xlink:href="#DejaVuSans-31"/>
       <use xlink:href="#DejaVuSans-30" x="63.623047"/>
       <use xlink:href="#DejaVuSans-30" x="127.246094"/>
      </g>
     </g>
    </g>
    <g id="xtick_3">
     <g id="line2d_3">
      <g>
       <use xlink:href="#ma0fd404877" x="180.988865" y="251.82" style="stroke: #000000; stroke-width: 0.8"/>
      </g>
     </g>
     <g id="text_3">
      <!-- 200 -->
      <g transform="translate(171.445115 266.418437)scale(0.1 -0.1)">
       <defs>
        <path id="DejaVuSans-32" d="M 1228 531 
L 3431 531 
L 3431 0 
L 469 0 
L 469 531 
Q 828 903 1448 1529 
Q 2069 2156 2228 2338 
Q 2531 2678 2651 2914 
Q 2772 3150 2772 3378 
Q 2772 3750 2511 3984 
Q 2250 4219 1831 4219 
Q 1534 4219 1204 4116 
Q 875 4013 500 3803 
L 500 4441 
Q 881 4594 1212 4672 
Q 1544 4750 1819 4750 
Q 2544 4750 2975 4387 
Q 3406 4025 3406 3419 
Q 3406 3131 3298 2873 
Q 3191 2616 2906 2266 
Q 2828 2175 2409 1742 
Q 1991 1309 1228 531 
z
" transform="scale(0.015625)"/>
       </defs>
       <use xlink:href="#DejaVuSans-32"/>
       <use xlink:href="#DejaVuSans-30" x="63.623047"/>
       <use xlink:href="#DejaVuSans-30" x="127.246094"/>
      </g>
     </g>
    </g>
    <g id="xtick_4">
     <g id="line2d_4">
      <g>
       <use xlink:href="#ma0fd404877" x="241.983582" y="251.82" style="stroke: #000000; stroke-width: 0.8"/>
      </g>
     </g>
     <g id="text_4">
      <!-- 300 -->
      <g transform="translate(232.439832 266.418437)scale(0.1 -0.1)">
       <defs>
        <path id="DejaVuSans-33" d="M 2597 2516 
Q 3050 2419 3304 2112 
Q 3559 1806 3559 1356 
Q 3559 666 3084 287 
Q 2609 -91 1734 -91 
Q 1441 -91 1130 -33 
Q 819 25 488 141 
L 488 750 
Q 750 597 1062 519 
Q 1375 441 1716 441 
Q 2309 441 2620 675 
Q 2931 909 2931 1356 
Q 2931 1769 2642 2001 
Q 2353 2234 1838 2234 
L 1294 2234 
L 1294 2753 
L 1863 2753 
Q 2328 2753 2575 2939 
Q 2822 3125 2822 3475 
Q 2822 3834 2567 4026 
Q 2313 4219 1838 4219 
Q 1578 4219 1281 4162 
Q 984 4106 628 3988 
L 628 4550 
Q 988 4650 1302 4700 
Q 1616 4750 1894 4750 
Q 2613 4750 3031 4423 
Q 3450 4097 3450 3541 
Q 3450 3153 3228 2886 
Q 3006 2619 2597 2516 
z
" transform="scale(0.015625)"/>
       </defs>
       <use xlink:href="#DejaVuSans-33"/>
       <use xlink:href="#DejaVuSans-30" x="63.623047"/>
       <use xlink:href="#DejaVuSans-30" x="127.246094"/>
      </g>
     </g>
    </g>
    <g id="xtick_5">
     <g id="line2d_5">
      <g>
       <use xlink:href="#ma0fd404877" x="302.978299" y="251.82" style="stroke: #000000; stroke-width: 0.8"/>
      </g>
     </g>
     <g id="text_5">
      <!-- 400 -->
      <g transform="translate(293.434549 266.418437)scale(0.1 -0.1)">
       <defs>
        <path id="DejaVuSans-34" d="M 2419 4116 
L 825 1625 
L 2419 1625 
L 2419 4116 
z
M 2253 4666 
L 3047 4666 
L 3047 1625 
L 3713 1625 
L 3713 1100 
L 3047 1100 
L 3047 0 
L 2419 0 
L 2419 1100 
L 313 1100 
L 313 1709 
L 2253 4666 
z
" transform="scale(0.015625)"/>
       </defs>
       <use xlink:href="#DejaVuSans-34"/>
       <use xlink:href="#DejaVuSans-30" x="63.623047"/>
       <use xlink:href="#DejaVuSans-30" x="127.246094"/>
      </g>
     </g>
    </g>
    <g id="xtick_6">
     <g id="line2d_6">
      <g>
       <use xlink:href="#ma0fd404877" x="363.973015" y="251.82" style="stroke: #000000; stroke-width: 0.8"/>
      </g>
     </g>
     <g id="text_6">
      <!-- 500 -->
      <g transform="translate(354.429265 266.418437)scale(0.1 -0.1)">
       <defs>
        <path id="DejaVuSans-35" d="M 691 4666 
L 3169 4666 
L 3169 4134 
L 1269 4134 
L 1269 2991 
Q 1406 3038 1543 3061 
Q 1681 3084 1819 3084 
Q 2600 3084 3056 2656 
Q 3513 2228 3513 1497 
Q 3513 744 3044 326 
Q 2575 -91 1722 -91 
Q 1428 -91 1123 -41 
Q 819 9 494 109 
L 494 744 
Q 775 591 1075 516 
Q 1375 441 1709 441 
Q 2250 441 2565 725 
Q 2881 1009 2881 1497 
Q 2881 1984 2565 2268 
Q 2250 2553 1709 2553 
Q 1456 2553 1204 2497 
Q 953 2441 691 2322 
L 691 4666 
z
" transform="scale(0.015625)"/>
       </defs>
       <use xlink:href="#DejaVuSans-35"/>
       <use xlink:href="#DejaVuSans-30" x="63.623047"/>
       <use xlink:href="#DejaVuSans-30" x="127.246094"/>
      </g>
     </g>
    </g>
    <g id="text_7">
     <!-- Groups of experiments -->
     <g transform="translate(154.035156 280.096562)scale(0.1 -0.1)">
      <defs>
       <path id="DejaVuSans-47" d="M 3809 666 
L 3809 1919 
L 2778 1919 
L 2778 2438 
L 4434 2438 
L 4434 434 
Q 4069 175 3628 42 
Q 3188 -91 2688 -91 
Q 1594 -91 976 548 
Q 359 1188 359 2328 
Q 359 3472 976 4111 
Q 1594 4750 2688 4750 
Q 3144 4750 3555 4637 
Q 3966 4525 4313 4306 
L 4313 3634 
Q 3963 3931 3569 4081 
Q 3175 4231 2741 4231 
Q 1884 4231 1454 3753 
Q 1025 3275 1025 2328 
Q 1025 1384 1454 906 
Q 1884 428 2741 428 
Q 3075 428 3337 486 
Q 3600 544 3809 666 
z
" transform="scale(0.015625)"/>
       <path id="DejaVuSans-72" d="M 2631 2963 
Q 2534 3019 2420 3045 
Q 2306 3072 2169 3072 
Q 1681 3072 1420 2755 
Q 1159 2438 1159 1844 
L 1159 0 
L 581 0 
L 581 3500 
L 1159 3500 
L 1159 2956 
Q 1341 3275 1631 3429 
Q 1922 3584 2338 3584 
Q 2397 3584 2469 3576 
Q 2541 3569 2628 3553 
L 2631 2963 
z
" transform="scale(0.015625)"/>
       <path id="DejaVuSans-6f" d="M 1959 3097 
Q 1497 3097 1228 2736 
Q 959 2375 959 1747 
Q 959 1119 1226 758 
Q 1494 397 1959 397 
Q 2419 397 2687 759 
Q 2956 1122 2956 1747 
Q 2956 2369 2687 2733 
Q 2419 3097 1959 3097 
z
M 1959 3584 
Q 2709 3584 3137 3096 
Q 3566 2609 3566 1747 
Q 3566 888 3137 398 
Q 2709 -91 1959 -91 
Q 1206 -91 779 398 
Q 353 888 353 1747 
Q 353 2609 779 3096 
Q 1206 3584 1959 3584 
z
" transform="scale(0.015625)"/>
       <path id="DejaVuSans-75" d="M 544 1381 
L 544 3500 
L 1119 3500 
L 1119 1403 
Q 1119 906 1312 657 
Q 1506 409 1894 409 
Q 2359 409 2629 706 
Q 2900 1003 2900 1516 
L 2900 3500 
L 3475 3500 
L 3475 0 
L 2900 0 
L 2900 538 
Q 2691 219 2414 64 
Q 2138 -91 1772 -91 
Q 1169 -91 856 284 
Q 544 659 544 1381 
z
M 1991 3584 
L 1991 3584 
z
" transform="scale(0.015625)"/>
       <path id="DejaVuSans-70" d="M 1159 525 
L 1159 -1331 
L 581 -1331 
L 581 3500 
L 1159 3500 
L 1159 2969 
Q 1341 3281 1617 3432 
Q 1894 3584 2278 3584 
Q 2916 3584 3314 3078 
Q 3713 2572 3713 1747 
Q 3713 922 3314 415 
Q 2916 -91 2278 -91 
Q 1894 -91 1617 61 
Q 1341 213 1159 525 
z
M 3116 1747 
Q 3116 2381 2855 2742 
Q 2594 3103 2138 3103 
Q 1681 3103 1420 2742 
Q 1159 2381 1159 1747 
Q 1159 1113 1420 752 
Q 1681 391 2138 391 
Q 2594 391 2855 752 
Q 3116 1113 3116 1747 
z
" transform="scale(0.015625)"/>
       <path id="DejaVuSans-73" d="M 2834 3397 
L 2834 2853 
Q 2591 2978 2328 3040 
Q 2066 3103 1784 3103 
Q 1356 3103 1142 2972 
Q 928 2841 928 2578 
Q 928 2378 1081 2264 
Q 1234 2150 1697 2047 
L 1894 2003 
Q 2506 1872 2764 1633 
Q 3022 1394 3022 966 
Q 3022 478 2636 193 
Q 2250 -91 1575 -91 
Q 1294 -91 989 -36 
Q 684 19 347 128 
L 347 722 
Q 666 556 975 473 
Q 1284 391 1588 391 
Q 1994 391 2212 530 
Q 2431 669 2431 922 
Q 2431 1156 2273 1281 
Q 2116 1406 1581 1522 
L 1381 1569 
Q 847 1681 609 1914 
Q 372 2147 372 2553 
Q 372 3047 722 3315 
Q 1072 3584 1716 3584 
Q 2034 3584 2315 3537 
Q 2597 3491 2834 3397 
z
" transform="scale(0.015625)"/>
       <path id="DejaVuSans-20" transform="scale(0.015625)"/>
       <path id="DejaVuSans-66" d="M 2375 4863 
L 2375 4384 
L 1825 4384 
Q 1516 4384 1395 4259 
Q 1275 4134 1275 3809 
L 1275 3500 
L 2222 3500 
L 2222 3053 
L 1275 3053 
L 1275 0 
L 697 0 
L 697 3053 
L 147 3053 
L 147 3500 
L 697 3500 
L 697 3744 
Q 697 4328 969 4595 
Q 1241 4863 1831 4863 
L 2375 4863 
z
" transform="scale(0.015625)"/>
       <path id="DejaVuSans-65" d="M 3597 1894 
L 3597 1613 
L 953 1613 
Q 991 1019 1311 708 
Q 1631 397 2203 397 
Q 2534 397 2845 478 
Q 3156 559 3463 722 
L 3463 178 
Q 3153 47 2828 -22 
Q 2503 -91 2169 -91 
Q 1331 -91 842 396 
Q 353 884 353 1716 
Q 353 2575 817 3079 
Q 1281 3584 2069 3584 
Q 2775 3584 3186 3129 
Q 3597 2675 3597 1894 
z
M 3022 2063 
Q 3016 2534 2758 2815 
Q 2500 3097 2075 3097 
Q 1594 3097 1305 2825 
Q 1016 2553 972 2059 
L 3022 2063 
z
" transform="scale(0.015625)"/>
       <path id="DejaVuSans-78" d="M 3513 3500 
L 2247 1797 
L 3578 0 
L 2900 0 
L 1881 1375 
L 863 0 
L 184 0 
L 1544 1831 
L 300 3500 
L 978 3500 
L 1906 2253 
L 2834 3500 
L 3513 3500 
z
" transform="scale(0.015625)"/>
       <path id="DejaVuSans-69" d="M 603 3500 
L 1178 3500 
L 1178 0 
L 603 0 
L 603 3500 
z
M 603 4863 
L 1178 4863 
L 1178 4134 
L 603 4134 
L 603 4863 
z
" transform="scale(0.015625)"/>
       <path id="DejaVuSans-6d" d="M 3328 2828 
Q 3544 3216 3844 3400 
Q 4144 3584 4550 3584 
Q 5097 3584 5394 3201 
Q 5691 2819 5691 2113 
L 5691 0 
L 5113 0 
L 5113 2094 
Q 5113 2597 4934 2840 
Q 4756 3084 4391 3084 
Q 3944 3084 3684 2787 
Q 3425 2491 3425 1978 
L 3425 0 
L 2847 0 
L 2847 2094 
Q 2847 2600 2669 2842 
Q 2491 3084 2119 3084 
Q 1678 3084 1418 2786 
Q 1159 2488 1159 1978 
L 1159 0 
L 581 0 
L 581 3500 
L 1159 3500 
L 1159 2956 
Q 1356 3278 1631 3431 
Q 1906 3584 2284 3584 
Q 2666 3584 2933 3390 
Q 3200 3197 3328 2828 
z
" transform="scale(0.015625)"/>
       <path id="DejaVuSans-6e" d="M 3513 2113 
L 3513 0 
L 2938 0 
L 2938 2094 
Q 2938 2591 2744 2837 
Q 2550 3084 2163 3084 
Q 1697 3084 1428 2787 
Q 1159 2491 1159 1978 
L 1159 0 
L 581 0 
L 581 3500 
L 1159 3500 
L 1159 2956 
Q 1366 3272 1645 3428 
Q 1925 3584 2291 3584 
Q 2894 3584 3203 3211 
Q 3513 2838 3513 2113 
z
" transform="scale(0.015625)"/>
       <path id="DejaVuSans-74" d="M 1172 4494 
L 1172 3500 
L 2356 3500 
L 2356 3053 
L 1172 3053 
L 1172 1153 
Q 1172 725 1289 603 
Q 1406 481 1766 481 
L 2356 481 
L 2356 0 
L 1766 0 
Q 1100 0 847 248 
Q 594 497 594 1153 
L 594 3053 
L 172 3053 
L 172 3500 
L 594 3500 
L 594 4494 
L 1172 4494 
z
" transform="scale(0.015625)"/>
      </defs>
      <use xlink:href="#DejaVuSans-47"/>
      <use xlink:href="#DejaVuSans-72" x="77.490234"/>
      <use xlink:href="#DejaVuSans-6f" x="116.353516"/>
      <use xlink:href="#DejaVuSans-75" x="177.535156"/>
      <use xlink:href="#DejaVuSans-70" x="240.914062"/>
      <use xlink:href="#DejaVuSans-73" x="304.390625"/>
      <use xlink:href="#DejaVuSans-20" x="356.490234"/>
      <use xlink:href="#DejaVuSans-6f" x="388.277344"/>
      <use xlink:href="#DejaVuSans-66" x="449.458984"/>
      <use xlink:href="#DejaVuSans-20" x="484.664062"/>
      <use xlink:href="#DejaVuSans-65" x="516.451172"/>
      <use xlink:href="#DejaVuSans-78" x="576.224609"/>
      <use xlink:href="#DejaVuSans-70" x="635.404297"/>
      <use xlink:href="#DejaVuSans-65" x="698.880859"/>
      <use xlink:href="#DejaVuSans-72" x="760.404297"/>
      <use xlink:href="#DejaVuSans-69" x="801.517578"/>
      <use xlink:href="#DejaVuSans-6d" x="829.300781"/>
      <use xlink:href="#DejaVuSans-65" x="926.712891"/>
      <use xlink:href="#DejaVuSans-6e" x="988.236328"/>
      <use xlink:href="#DejaVuSans-74" x="1051.615234"/>
      <use xlink:href="#DejaVuSans-73" x="1090.824219"/>
     </g>
    </g>
   </g>
   <g id="matplotlib.axis_2">
    <g id="ytick_1">
     <g id="line2d_7">
      <defs>
       <path id="m0b8f3de59c" d="M 0 0 
L -3.5 0 
" style="stroke: #000000; stroke-width: 0.8"/>
      </defs>
      <g>
       <use xlink:href="#m0b8f3de59c" x="43.78125" y="240.700909" style="stroke: #000000; stroke-width: 0.8"/>
      </g>
     </g>
     <g id="text_8">
      <!-- 0.0 -->
      <g transform="translate(20.878125 244.500128)scale(0.1 -0.1)">
       <defs>
        <path id="DejaVuSans-2e" d="M 684 794 
L 1344 794 
L 1344 0 
L 684 0 
L 684 794 
z
" transform="scale(0.015625)"/>
       </defs>
       <use xlink:href="#DejaVuSans-30"/>
       <use xlink:href="#DejaVuSans-2e" x="63.623047"/>
       <use xlink:href="#DejaVuSans-30" x="95.410156"/>
      </g>
     </g>
    </g>
    <g id="ytick_2">
     <g id="line2d_8">
      <g>
       <use xlink:href="#m0b8f3de59c" x="43.78125" y="196.224545" style="stroke: #000000; stroke-width: 0.8"/>
      </g>
     </g>
     <g id="text_9">
      <!-- 0.1 -->
      <g transform="translate(20.878125 200.023764)scale(0.1 -0.1)">
       <use xlink:href="#DejaVuSans-30"/>
       <use xlink:href="#DejaVuSans-2e" x="63.623047"/>
       <use xlink:href="#DejaVuSans-31" x="95.410156"/>
      </g>
     </g>
    </g>
    <g id="ytick_3">
     <g id="line2d_9">
      <g>
       <use xlink:href="#m0b8f3de59c" x="43.78125" y="151.748182" style="stroke: #000000; stroke-width: 0.8"/>
      </g>
     </g>
     <g id="text_10">
      <!-- 0.2 -->
      <g transform="translate(20.878125 155.547401)scale(0.1 -0.1)">
       <use xlink:href="#DejaVuSans-30"/>
       <use xlink:href="#DejaVuSans-2e" x="63.623047"/>
       <use xlink:href="#DejaVuSans-32" x="95.410156"/>
      </g>
     </g>
    </g>
    <g id="ytick_4">
     <g id="line2d_10">
      <g>
       <use xlink:href="#m0b8f3de59c" x="43.78125" y="107.271818" style="stroke: #000000; stroke-width: 0.8"/>
      </g>
     </g>
     <g id="text_11">
      <!-- 0.3 -->
      <g transform="translate(20.878125 111.071037)scale(0.1 -0.1)">
       <use xlink:href="#DejaVuSans-30"/>
       <use xlink:href="#DejaVuSans-2e" x="63.623047"/>
       <use xlink:href="#DejaVuSans-33" x="95.410156"/>
      </g>
     </g>
    </g>
    <g id="ytick_5">
     <g id="line2d_11">
      <g>
       <use xlink:href="#m0b8f3de59c" x="43.78125" y="62.795455" style="stroke: #000000; stroke-width: 0.8"/>
      </g>
     </g>
     <g id="text_12">
      <!-- 0.4 -->
      <g transform="translate(20.878125 66.594673)scale(0.1 -0.1)">
       <use xlink:href="#DejaVuSans-30"/>
       <use xlink:href="#DejaVuSans-2e" x="63.623047"/>
       <use xlink:href="#DejaVuSans-34" x="95.410156"/>
      </g>
     </g>
    </g>
    <g id="ytick_6">
     <g id="line2d_12">
      <g>
       <use xlink:href="#m0b8f3de59c" x="43.78125" y="18.319091" style="stroke: #000000; stroke-width: 0.8"/>
      </g>
     </g>
     <g id="text_13">
      <!-- 0.5 -->
      <g transform="translate(20.878125 22.11831)scale(0.1 -0.1)">
       <use xlink:href="#DejaVuSans-30"/>
       <use xlink:href="#DejaVuSans-2e" x="63.623047"/>
       <use xlink:href="#DejaVuSans-35" x="95.410156"/>
      </g>
     </g>
    </g>
    <g id="text_14">
     <!-- Estimated probability -->
     <g transform="translate(14.798438 183.033437)rotate(-90)scale(0.1 -0.1)">
      <defs>
       <path id="DejaVuSans-45" d="M 628 4666 
L 3578 4666 
L 3578 4134 
L 1259 4134 
L 1259 2753 
L 3481 2753 
L 3481 2222 
L 1259 2222 
L 1259 531 
L 3634 531 
L 3634 0 
L 628 0 
L 628 4666 
z
" transform="scale(0.015625)"/>
       <path id="DejaVuSans-61" d="M 2194 1759 
Q 1497 1759 1228 1600 
Q 959 1441 959 1056 
Q 959 750 1161 570 
Q 1363 391 1709 391 
Q 2188 391 2477 730 
Q 2766 1069 2766 1631 
L 2766 1759 
L 2194 1759 
z
M 3341 1997 
L 3341 0 
L 2766 0 
L 2766 531 
Q 2569 213 2275 61 
Q 1981 -91 1556 -91 
Q 1019 -91 701 211 
Q 384 513 384 1019 
Q 384 1609 779 1909 
Q 1175 2209 1959 2209 
L 2766 2209 
L 2766 2266 
Q 2766 2663 2505 2880 
Q 2244 3097 1772 3097 
Q 1472 3097 1187 3025 
Q 903 2953 641 2809 
L 641 3341 
Q 956 3463 1253 3523 
Q 1550 3584 1831 3584 
Q 2591 3584 2966 3190 
Q 3341 2797 3341 1997 
z
" transform="scale(0.015625)"/>
       <path id="DejaVuSans-64" d="M 2906 2969 
L 2906 4863 
L 3481 4863 
L 3481 0 
L 2906 0 
L 2906 525 
Q 2725 213 2448 61 
Q 2172 -91 1784 -91 
Q 1150 -91 751 415 
Q 353 922 353 1747 
Q 353 2572 751 3078 
Q 1150 3584 1784 3584 
Q 2172 3584 2448 3432 
Q 2725 3281 2906 2969 
z
M 947 1747 
Q 947 1113 1208 752 
Q 1469 391 1925 391 
Q 2381 391 2643 752 
Q 2906 1113 2906 1747 
Q 2906 2381 2643 2742 
Q 2381 3103 1925 3103 
Q 1469 3103 1208 2742 
Q 947 2381 947 1747 
z
" transform="scale(0.015625)"/>
       <path id="DejaVuSans-62" d="M 3116 1747 
Q 3116 2381 2855 2742 
Q 2594 3103 2138 3103 
Q 1681 3103 1420 2742 
Q 1159 2381 1159 1747 
Q 1159 1113 1420 752 
Q 1681 391 2138 391 
Q 2594 391 2855 752 
Q 3116 1113 3116 1747 
z
M 1159 2969 
Q 1341 3281 1617 3432 
Q 1894 3584 2278 3584 
Q 2916 3584 3314 3078 
Q 3713 2572 3713 1747 
Q 3713 922 3314 415 
Q 2916 -91 2278 -91 
Q 1894 -91 1617 61 
Q 1341 213 1159 525 
L 1159 0 
L 581 0 
L 581 4863 
L 1159 4863 
L 1159 2969 
z
" transform="scale(0.015625)"/>
       <path id="DejaVuSans-6c" d="M 603 4863 
L 1178 4863 
L 1178 0 
L 603 0 
L 603 4863 
z
" transform="scale(0.015625)"/>
       <path id="DejaVuSans-79" d="M 2059 -325 
Q 1816 -950 1584 -1140 
Q 1353 -1331 966 -1331 
L 506 -1331 
L 506 -850 
L 844 -850 
Q 1081 -850 1212 -737 
Q 1344 -625 1503 -206 
L 1606 56 
L 191 3500 
L 800 3500 
L 1894 763 
L 2988 3500 
L 3597 3500 
L 2059 -325 
z
" transform="scale(0.015625)"/>
      </defs>
      <use xlink:href="#DejaVuSans-45"/>
      <use xlink:href="#DejaVuSans-73" x="63.183594"/>
      <use xlink:href="#DejaVuSans-74" x="115.283203"/>
      <use xlink:href="#DejaVuSans-69" x="154.492188"/>
      <use xlink:href="#DejaVuSans-6d" x="182.275391"/>
      <use xlink:href="#DejaVuSans-61" x="279.6875"/>
      <use xlink:href="#DejaVuSans-74" x="340.966797"/>
      <use xlink:href="#DejaVuSans-65" x="380.175781"/>
      <use xlink:href="#DejaVuSans-64" x="441.699219"/>
      <use xlink:href="#DejaVuSans-20" x="505.175781"/>
      <use xlink:href="#DejaVuSans-70" x="536.962891"/>
      <use xlink:href="#DejaVuSans-72" x="600.439453"/>
      <use xlink:href="#DejaVuSans-6f" x="639.302734"/>
      <use xlink:href="#DejaVuSans-62" x="700.484375"/>
      <use xlink:href="#DejaVuSans-61" x="763.960938"/>
      <use xlink:href="#DejaVuSans-62" x="825.240234"/>
      <use xlink:href="#DejaVuSans-69" x="888.716797"/>
      <use xlink:href="#DejaVuSans-6c" x="916.5"/>
      <use xlink:href="#DejaVuSans-69" x="944.283203"/>
      <use xlink:href="#DejaVuSans-74" x="972.066406"/>
      <use xlink:href="#DejaVuSans-79" x="1011.275391"/>
     </g>
    </g>
   </g>
   <g id="line2d_13">
    <path d="M 58.999432 107.271813 
L 59.609379 151.74818 
L 60.219326 166.573634 
L 60.829273 173.986361 
L 61.43922 178.434 
L 62.049168 181.399088 
L 62.659115 170.809478 
L 63.269062 168.426821 
L 63.879009 176.45727 
L 64.488956 178.434 
L 65.098903 167.921408 
L 65.708851 162.867274 
L 66.318798 162.011956 
L 67.538692 154.713275 
L 68.148639 146.188634 
L 69.368534 151.74818 
L 70.588428 160.643451 
L 71.808322 167.921408 
L 72.418269 171.085732 
L 73.028217 168.426821 
L 73.638164 169.538729 
L 74.248111 167.143844 
L 74.858058 163.279093 
L 75.468005 164.455712 
L 76.077952 164.017522 
L 76.6879 165.09109 
L 77.297847 164.660674 
L 77.907794 162.867274 
L 78.517741 163.8781 
L 79.127688 162.213207 
L 79.737635 161.914207 
L 80.347583 162.867274 
L 80.95753 162.566757 
L 82.787371 165.09109 
L 84.007266 164.455712 
L 85.22716 165.89975 
L 85.837107 165.585276 
L 86.447054 163.35071 
L 87.057002 164.996463 
L 89.49679 167.44572 
L 90.106737 167.143844 
L 90.716685 167.692541 
L 92.546526 166.838376 
L 93.156473 165.793346 
L 94.986315 169.538729 
L 96.206209 170.399561 
L 96.816156 171.515452 
L 98.036051 172.275732 
L 98.645998 171.96471 
L 99.255945 172.326797 
L 99.865892 171.370104 
L 100.475839 172.374899 
L 101.085786 172.080234 
L 101.695734 170.541012 
L 102.305681 170.280001 
L 102.915628 171.244672 
L 103.525575 170.981203 
L 104.135522 171.910802 
L 104.745469 170.475075 
L 105.355417 169.654253 
L 105.965364 169.424683 
L 107.185258 171.206591 
L 107.795205 170.41727 
L 109.625047 169.750517 
L 110.234994 170.061976 
L 110.844941 169.849028 
L 111.454888 170.152196 
L 112.064835 168.932234 
L 113.894677 168.365722 
L 114.504624 168.668539 
L 115.724518 167.362226 
L 116.334466 166.261519 
L 118.164307 167.178758 
L 118.774254 167.022892 
L 119.994149 167.601141 
L 120.604096 168.317805 
L 121.214043 168.156936 
L 122.433937 168.691556 
L 123.043884 168.531714 
L 124.263779 169.044543 
L 125.483673 168.730068 
L 126.703567 167.632595 
L 127.313515 167.492026 
L 127.923462 166.963782 
L 128.533409 166.83147 
L 129.143356 167.468273 
L 129.753303 167.714054 
L 130.36325 166.824916 
L 130.973198 166.324467 
L 131.583145 166.573634 
L 134.022933 166.095394 
L 135.242828 166.573634 
L 135.852775 166.456897 
L 136.462722 165.994517 
L 138.292564 165.668265 
L 138.902511 165.225867 
L 139.512458 165.124532 
L 140.122405 165.356621 
L 141.342299 165.156497 
L 143.172141 166.786953 
L 143.782088 166.997224 
L 144.392035 166.88907 
L 145.001982 167.095662 
L 145.61193 166.677308 
L 146.221877 165.955912 
L 146.831824 165.551191 
L 147.441771 165.761282 
L 149.88156 165.387598 
L 150.491507 165.002726 
L 151.711401 164.829463 
L 152.931296 164.086786 
L 153.541243 164.292795 
L 154.15119 164.212894 
L 155.371084 162.937207 
L 155.981031 162.867274 
L 156.590979 163.35071 
L 157.200926 163.279093 
L 158.42082 162.596077 
L 159.640714 163.001236 
L 160.250662 163.466506 
L 160.860609 163.661493 
L 161.470556 163.591003 
L 162.080503 163.782962 
L 162.69045 163.712584 
L 163.910345 163.060088 
L 164.520292 162.995079 
L 165.130239 163.184963 
L 165.740186 163.625393 
L 166.96008 163.991675 
L 167.570028 163.923273 
L 168.179975 163.608546 
L 169.399869 164.455712 
L 170.009816 164.629313 
L 170.619763 164.317589 
L 171.229711 164.249644 
L 171.839658 164.421554 
L 172.449605 164.353781 
L 173.059552 164.523306 
L 173.669499 164.455712 
L 174.279446 164.154744 
L 174.889394 164.322652 
L 177.329182 163.152376 
L 177.939129 163.54803 
L 179.768971 164.040645 
L 180.378918 163.756803 
L 180.988865 163.918328 
L 181.598812 164.298442 
L 182.20876 164.23662 
L 182.818707 164.611445 
L 183.428654 164.765654 
L 184.038601 165.134275 
L 185.258495 165.433215 
L 185.868443 165.367735 
L 186.47839 165.514673 
L 188.308231 165.320779 
L 188.918178 165.049522 
L 190.74802 165.480515 
L 192.577861 166.506246 
L 193.187809 166.640718 
L 193.797756 166.974326 
L 196.237544 167.492026 
L 196.847492 167.226741 
L 197.457439 167.158849 
L 198.067386 166.897334 
L 198.677333 167.218224 
L 199.897227 167.084859 
L 200.507175 166.637265 
L 201.727069 166.88907 
L 202.337016 166.447997 
L 203.55691 166.324467 
L 204.166858 166.449574 
L 205.386752 167.065765 
L 205.996699 167.002473 
L 206.606646 167.122729 
L 207.216593 167.42428 
L 208.436488 167.658422 
L 209.046435 167.954141 
L 209.656382 168.068141 
L 210.876276 167.937579 
L 211.486224 168.050273 
L 212.096171 168.338569 
L 213.316065 168.207941 
L 213.926012 168.317805 
L 215.145907 168.881102 
L 215.755854 168.987083 
L 216.365801 169.263973 
L 217.585695 169.129746 
L 218.195642 169.402925 
L 218.80559 168.997567 
L 219.415537 169.100704 
L 220.635431 168.635826 
L 221.245378 168.739155 
L 221.855325 168.509797 
L 222.465273 168.116807 
L 223.07522 168.385638 
L 224.295114 168.590334 
L 224.905061 168.854473 
L 226.734903 169.151975 
L 227.34485 168.928582 
L 227.954797 169.186756 
L 228.564744 169.283663 
L 229.174691 169.538729 
L 229.784639 169.633694 
L 230.394586 169.570269 
L 234.054269 170.125567 
L 234.664216 169.908079 
L 235.274163 169.845463 
L 235.88411 169.936113 
L 236.494057 169.721509 
L 237.104005 169.811961 
L 238.323899 169.689498 
L 238.933846 169.478624 
L 239.543793 169.418924 
L 240.763688 169.003227 
L 241.373635 169.093964 
L 242.593529 168.97909 
L 243.203476 168.775434 
L 245.033318 168.6085 
L 246.863159 168.876622 
L 247.473106 168.821369 
L 248.083054 169.052489 
L 249.302948 168.941923 
L 249.912895 169.170452 
L 250.522842 169.256338 
L 251.132789 169.200932 
L 252.352684 169.370894 
L 252.962631 169.594499 
L 253.572578 169.677714 
L 254.182525 169.483303 
L 254.792472 169.566352 
L 255.40242 169.373492 
L 256.012367 169.319094 
L 257.232261 169.484158 
L 257.842208 169.429919 
L 258.452155 169.647208 
L 259.062103 169.72799 
L 259.67205 169.673506 
L 260.891944 169.297587 
L 261.501891 169.512013 
L 262.111838 169.458828 
L 262.721786 169.273198 
L 263.331733 169.485782 
L 264.551627 169.380822 
L 265.161574 169.066414 
L 266.381469 169.225699 
L 266.991416 169.43469 
L 267.601363 169.383122 
L 268.21131 169.461154 
L 268.821257 169.280893 
L 269.431204 169.230219 
L 270.041152 169.308013 
L 270.651099 169.513167 
L 272.48094 169.361331 
L 273.090887 169.437646 
L 273.700835 169.261541 
L 274.310782 169.212066 
L 274.920729 169.413443 
L 275.530676 169.363823 
L 276.140623 169.189891 
L 277.360518 169.340507 
L 277.970465 169.168093 
L 279.190359 169.563297 
L 279.800306 169.51422 
L 280.410253 169.709791 
L 281.630148 169.854681 
L 282.240095 169.562966 
L 282.850042 169.514558 
L 283.459989 169.707472 
L 284.679884 169.610657 
L 285.289831 169.682201 
L 286.509725 170.061976 
L 287.119672 170.013145 
L 288.339567 169.680299 
L 288.949514 169.632859 
L 289.559461 169.468318 
L 290.169408 169.187598 
L 290.779355 169.258558 
L 292.609197 168.658465 
L 293.829091 168.801294 
L 294.439038 168.757228 
L 296.26888 168.170224 
L 296.878827 168.355721 
L 299.318616 168.187548 
L 300.53851 168.328794 
L 301.148457 168.287133 
L 302.368351 168.426821 
L 302.978299 168.385227 
L 303.588246 168.122566 
L 306.028034 168.728074 
L 307.247929 168.753848 
L 307.857876 168.60353 
L 309.687717 168.696699 
L 310.297665 168.547971 
L 312.127506 168.640644 
L 313.3474 168.453417 
L 313.957348 168.201254 
L 314.567295 168.162079 
L 315.787189 167.768108 
L 320.056819 168.128756 
L 320.666766 167.780362 
L 324.326449 168.069784 
L 326.156291 168.059558 
L 328.59608 168.615062 
L 329.206027 168.276562 
L 331.645815 168.029708 
L 332.255763 167.894388 
L 332.86571 168.056185 
L 333.475657 167.921408 
L 334.695551 167.948183 
L 338.965181 167.798349 
L 341.40497 168.330961 
L 342.014917 168.199657 
L 342.624865 167.878025 
L 345.064653 168.213899 
L 345.6746 168.367796 
L 346.284548 168.238361 
L 349.944231 168.496602 
L 351.164125 168.334162 
L 351.774072 168.207212 
L 352.384019 168.265335 
L 352.993966 168.046973 
L 354.213861 168.071468 
L 354.823808 167.946361 
L 355.433755 168.004431 
L 356.043702 167.788838 
L 357.873544 167.871993 
L 360.313332 167.831553 
L 361.533227 168.035302 
L 362.143174 167.823977 
L 363.363068 167.937579 
L 363.363068 167.937579 
" clip-path="url(#pcf855e209c)" style="fill: none; stroke: #1f77b4; stroke-width: 1.5; stroke-linecap: square"/>
   </g>
   <g id="line2d_14">
    <path d="M 58.999432 196.224545 
L 59.609379 218.462727 
L 60.219326 181.399088 
L 60.829273 196.224545 
L 61.43922 187.329274 
L 62.049168 181.399088 
L 62.659115 183.51701 
L 63.269062 185.105455 
L 63.879009 176.45727 
L 64.488956 169.538729 
L 65.098903 171.96471 
L 65.708851 170.280001 
L 66.318798 165.433215 
L 66.928745 164.455712 
L 68.148639 168.426821 
L 69.368534 176.45727 
L 70.588428 178.434 
L 71.198375 172.9274 
L 71.808322 165.89975 
L 72.418269 167.218224 
L 73.028217 164.720454 
L 73.638164 164.201561 
L 74.248111 165.433215 
L 75.468005 170.809478 
L 76.077952 170.152196 
L 76.6879 172.503817 
L 77.297847 173.269001 
L 78.517741 171.96471 
L 79.127688 173.986361 
L 79.737635 174.621739 
L 80.347583 176.45727 
L 81.567477 177.497654 
L 82.177424 179.118249 
L 82.787371 178.434 
L 83.397319 178.867915 
L 84.007266 178.222205 
L 85.22716 181.062146 
L 85.837107 180.41073 
L 86.447054 181.721383 
L 87.666949 180.472498 
L 88.276896 178.070926 
L 88.886843 177.544471 
L 89.49679 177.910746 
L 91.326632 176.45727 
L 91.936579 175.199358 
L 92.546526 175.574806 
L 93.156473 175.156796 
L 93.76642 172.452699 
L 94.376368 171.347935 
L 94.986315 171.762545 
L 96.206209 171.116921 
L 97.426103 171.901537 
L 99.865892 170.716044 
L 101.695734 171.793866 
L 102.305681 171.515452 
L 102.915628 171.853938 
L 103.525575 172.784299 
L 104.135522 171.910802 
L 104.745469 171.645503 
L 105.355417 172.542323 
L 105.965364 172.845941 
L 107.795205 172.064547 
L 109.0151 172.646712 
L 109.625047 172.397923 
L 110.234994 171.631731 
L 110.844941 172.434864 
L 111.454888 172.197083 
L 112.064835 172.975536 
L 112.674783 172.237292 
L 114.504624 173.019489 
L 115.114571 173.747241 
L 116.334466 173.284105 
L 116.944413 172.133181 
L 117.55436 171.92303 
L 118.164307 172.171004 
L 120.604096 169.625933 
L 121.82399 169.282132 
L 122.433937 169.538729 
L 123.653832 169.206194 
L 124.263779 169.456362 
L 124.873726 170.109986 
L 126.703567 170.809478 
L 127.313515 170.640795 
L 127.923462 170.865215 
L 129.143356 169.768776 
L 130.36325 169.463341 
L 130.973198 168.940723 
L 131.583145 169.168093 
L 132.193092 169.759272 
L 134.632881 170.60616 
L 135.242828 170.103504 
L 136.462722 170.511645 
L 137.072669 170.366191 
L 137.682616 170.565102 
L 138.292564 170.421465 
L 138.902511 170.616943 
L 140.122405 170.335321 
L 140.732352 169.868182 
L 141.342299 170.061976 
L 141.952247 169.9283 
L 142.562194 169.47427 
L 143.172141 169.666719 
L 143.782088 168.903351 
L 144.392035 169.412555 
L 145.001982 169.288157 
L 145.61193 169.787545 
L 146.221877 169.662272 
L 146.831824 168.925261 
L 147.441771 168.80761 
L 148.051718 168.388998 
L 148.661665 168.577079 
L 149.271613 169.061132 
L 149.88156 168.056185 
L 150.491507 167.948183 
L 151.101454 168.13421 
L 151.711401 167.44572 
L 152.321348 167.343789 
L 152.931296 167.817065 
L 153.541243 167.428952 
L 154.15119 167.612361 
L 155.371084 167.412814 
L 157.200926 167.946361 
L 157.810873 168.392709 
L 158.42082 168.291222 
L 159.030767 167.921408 
L 159.640714 168.359837 
L 160.250662 167.994039 
L 160.860609 168.162079 
L 161.470556 168.591302 
L 162.080503 167.968974 
L 162.69045 168.13421 
L 163.300397 168.55611 
L 164.520292 168.362919 
L 165.130239 168.013822 
L 165.740186 167.921408 
L 166.350133 168.08131 
L 166.96008 167.489819 
L 168.179975 167.809092 
L 168.789922 167.474629 
L 169.399869 166.899468 
L 170.009816 167.302758 
L 170.619763 167.459942 
L 171.229711 167.375011 
L 172.449605 166.732197 
L 173.059552 166.88907 
L 174.279446 166.261519 
L 174.889394 166.185535 
L 176.719235 167.337837 
L 177.329182 167.485975 
L 178.549077 167.326199 
L 179.768971 166.722633 
L 181.598812 166.500241 
L 182.20876 166.865761 
L 183.428654 166.718273 
L 184.038601 167.077417 
L 184.648548 167.218224 
L 185.258495 166.930014 
L 187.088337 166.714164 
L 187.698284 167.063154 
L 188.308231 166.782447 
L 188.918178 167.127858 
L 189.528126 166.849457 
L 193.187809 166.439467 
L 193.797756 165.972607 
L 196.237544 166.508035 
L 196.847492 166.834877 
L 197.457439 166.768708 
L 198.067386 166.897334 
L 199.28728 166.766176 
L 200.507175 166.255495 
L 201.117122 166.383564 
L 201.727069 166.321286 
L 202.337016 166.636456 
L 203.55691 166.885093 
L 204.166858 166.821761 
L 205.386752 167.065765 
L 207.216593 166.877439 
L 207.826541 166.997224 
L 208.436488 167.296826 
L 209.046435 167.053816 
L 209.656382 167.171434 
L 210.266329 167.466735 
L 210.876276 167.225959 
L 211.486224 167.341489 
L 212.096171 167.279608 
L 212.706118 166.866629 
L 213.316065 166.807108 
L 214.535959 167.036929 
L 215.145907 167.323562 
L 218.195642 167.026325 
L 219.415537 167.247518 
L 220.635431 167.7998 
L 221.245378 167.739682 
L 221.855325 168.011926 
L 222.465273 168.116807 
L 223.07522 167.726725 
L 223.685167 167.667767 
L 224.295114 167.772753 
L 224.905061 168.039888 
L 225.515008 167.980433 
L 226.124956 168.083139 
L 226.734903 168.023955 
L 227.954797 168.226836 
L 228.564744 168.486601 
L 229.174691 168.585662 
L 229.784639 168.842298 
L 230.394586 168.781683 
L 232.224427 169.070556 
L 234.054269 168.426821 
L 234.664216 168.676903 
L 235.88411 168.56055 
L 236.494057 168.198345 
L 237.104005 167.9904 
L 237.713952 168.086439 
L 238.323899 168.031053 
L 238.933846 168.126304 
L 239.543793 167.921408 
L 240.15374 168.01638 
L 240.763688 167.961975 
L 241.373635 168.056185 
L 243.813423 167.8416 
L 245.033318 168.02711 
L 245.643265 167.829213 
L 246.253212 167.921408 
L 246.863159 168.156936 
L 247.473106 168.104009 
L 248.083054 167.908405 
L 248.693001 167.856611 
L 249.302948 168.089336 
L 249.912895 168.037296 
L 252.352684 168.391854 
L 252.962631 168.339676 
L 253.572578 168.565806 
L 254.792472 168.46135 
L 256.012367 168.63273 
L 256.622314 168.854473 
L 258.452155 168.698018 
L 259.67205 168.864845 
L 260.281997 168.813131 
L 260.891944 168.895696 
L 261.501891 168.844201 
L 262.111838 168.926176 
L 263.331733 168.823927 
L 263.94168 168.905233 
L 264.551627 168.722891 
L 265.161574 168.672814 
L 265.771521 168.753848 
L 266.381469 168.703983 
L 266.991416 168.784447 
L 267.601363 168.994121 
L 268.21131 169.07328 
L 269.431204 168.973132 
L 270.041152 169.051668 
L 271.261046 168.952507 
L 272.48094 169.107902 
L 273.090887 169.058587 
L 274.310782 169.212066 
L 275.530676 169.613686 
L 276.140623 169.563642 
L 277.970465 170.156458 
L 278.580412 169.982261 
L 279.190359 170.054752 
L 279.800306 169.759272 
L 280.410253 169.831976 
L 281.020201 169.782435 
L 281.630148 169.611638 
L 282.240095 169.805346 
L 282.850042 169.756276 
L 283.459989 169.586937 
L 284.679884 169.970305 
L 286.509725 169.824135 
L 287.119672 169.894539 
L 287.729619 170.082853 
L 288.339567 170.152196 
L 289.559461 170.524483 
L 290.779355 170.192445 
L 291.389302 170.144164 
L 291.99925 170.212261 
L 292.609197 170.395823 
L 293.219144 170.462913 
L 293.829091 170.414426 
L 295.048985 170.776732 
L 296.26888 170.907234 
L 296.878827 170.85823 
L 298.098721 171.100491 
L 298.708668 171.051375 
L 299.318616 170.777308 
L 301.148457 171.19262 
L 301.758404 171.143888 
L 302.368351 171.31778 
L 304.198193 171.06174 
L 305.418087 170.746729 
L 306.028034 170.809478 
L 306.637982 170.653367 
L 308.467823 170.840475 
L 309.07777 170.685809 
L 309.687717 170.315982 
L 310.297665 170.378717 
L 310.907612 170.118853 
L 312.127506 170.13745 
L 315.787189 169.875989 
L 316.397136 169.622845 
L 317.617031 169.748025 
L 320.056819 169.269175 
L 321.276714 169.394256 
L 321.886661 169.044543 
L 323.106555 169.374758 
L 326.156291 169.173998 
L 326.766238 169.336564 
L 327.376185 169.29668 
L 327.986132 169.458225 
L 328.59608 169.418248 
L 329.815974 169.638671 
L 332.255763 169.479293 
L 332.86571 169.242221 
L 335.915446 169.44098 
L 340.185076 169.172904 
L 342.014917 169.538729 
L 343.234812 169.557776 
L 343.844759 169.424683 
L 345.064653 169.633356 
L 346.284548 169.651801 
L 348.114389 169.445096 
L 348.724336 169.22104 
L 349.944231 169.427069 
L 350.554178 169.204458 
L 354.213861 169.447024 
L 355.433755 169.465667 
L 356.653649 169.575107 
L 357.263597 169.266425 
L 357.873544 169.321327 
L 358.483491 169.195213 
L 360.313332 169.359024 
L 360.92328 169.233851 
L 362.143174 169.252938 
L 362.753121 169.217859 
L 363.363068 169.00501 
L 363.363068 169.00501 
" clip-path="url(#pcf855e209c)" style="fill: none; stroke: #ff7f0e; stroke-width: 1.5; stroke-linecap: square"/>
   </g>
   <g id="line2d_15">
    <path d="M 58.999432 18.319091 
L 59.609379 18.319091 
L 60.219326 92.446359 
L 60.829273 107.271813 
L 61.43922 133.957639 
L 62.049168 151.74818 
L 62.659115 151.74818 
L 63.269062 135.069547 
L 63.879009 136.922727 
L 64.488956 147.300548 
L 65.098903 143.66157 
L 65.708851 148.04182 
L 66.318798 148.326922 
L 67.538692 154.713275 
L 68.148639 160.087497 
L 68.758586 156.980694 
L 69.368534 156.689998 
L 69.978481 158.770767 
L 70.588428 156.195819 
L 71.198375 160.219868 
L 72.418269 163.35071 
L 73.028217 162.867274 
L 73.638164 165.980619 
L 74.858058 164.926364 
L 76.077952 167.084859 
L 76.6879 169.538729 
L 77.907794 171.206591 
L 78.517741 173.312477 
L 79.127688 172.678233 
L 79.737635 173.35099 
L 80.347583 172.75091 
L 80.95753 173.385333 
L 81.567477 175.156796 
L 82.177424 174.556571 
L 83.397319 171.27439 
L 84.007266 171.868439 
L 84.617213 173.469198 
L 85.22716 169.943059 
L 85.837107 171.515452 
L 86.447054 171.085732 
L 88.276896 172.624842 
L 88.886843 173.986361 
L 89.49679 172.678233 
L 90.106737 170.565102 
L 92.546526 172.397923 
L 93.156473 172.035644 
L 93.76642 172.452699 
L 94.376368 171.347935 
L 94.986315 172.503817 
L 95.596262 172.163561 
L 96.206209 172.551641 
L 96.816156 172.221426 
L 97.426103 169.12176 
L 98.036051 168.854473 
L 98.645998 169.943059 
L 99.255945 170.335321 
L 99.865892 171.370104 
L 100.475839 171.085732 
L 101.085786 170.174107 
L 101.695734 170.541012 
L 102.915628 170.026141 
L 105.355417 171.387097 
L 105.965364 170.565102 
L 106.575311 170.889909 
L 107.795205 170.41727 
L 108.405152 170.731996 
L 109.0151 169.431556 
L 110.234994 169.015475 
L 110.844941 169.849028 
L 111.454888 170.152196 
L 112.064835 169.943059 
L 112.674783 170.238354 
L 113.28473 169.044543 
L 115.724518 168.308527 
L 116.334466 167.666037 
L 116.944413 167.500224 
L 117.55436 166.879314 
L 118.774254 166.573634 
L 119.384201 165.535855 
L 121.214043 165.134275 
L 121.82399 164.150244 
L 122.433937 163.608546 
L 123.043884 163.496654 
L 123.653832 163.802526 
L 124.263779 162.455455 
L 124.873726 163.173305 
L 126.09362 163.768819 
L 126.703567 163.661493 
L 127.313515 163.949663 
L 127.923462 163.062348 
L 128.533409 162.577208 
L 129.143356 162.483854 
L 129.753303 161.631816 
L 130.36325 162.301896 
L 130.973198 162.586958 
L 131.583145 162.126002 
L 132.193092 162.407803 
L 132.803039 162.320433 
L 133.412986 161.872885 
L 134.022933 161.791234 
L 134.632881 162.066699 
L 135.242828 161.278829 
L 135.852775 161.9042 
L 137.682616 161.669832 
L 138.292564 161.933606 
L 139.512458 161.780444 
L 140.122405 162.369403 
L 140.732352 162.620181 
L 141.342299 163.194308 
L 142.562194 163.028422 
L 143.782088 162.231896 
L 144.392035 162.157542 
L 145.001982 161.771027 
L 145.61193 161.700934 
L 146.221877 162.249545 
L 146.831824 162.483854 
L 147.441771 162.105689 
L 148.051718 162.640355 
L 148.661665 162.26624 
L 149.88156 162.719017 
L 151.101454 163.745099 
L 151.711401 163.957378 
L 152.321348 163.300487 
L 152.931296 163.512898 
L 153.541243 164.007694 
L 154.15119 163.646316 
L 155.981031 164.257159 
L 156.590979 164.179465 
L 157.200926 164.377276 
L 158.42082 164.223259 
L 159.030767 163.8781 
L 159.640714 163.805025 
L 160.860609 164.190977 
L 161.470556 163.854174 
L 162.080503 164.306216 
L 163.910345 164.859711 
L 165.130239 164.709863 
L 165.740186 164.888925 
L 166.96008 164.741278 
L 167.570028 165.16563 
L 168.789922 164.525924 
L 169.399869 164.700088 
L 170.009816 164.629313 
L 170.619763 165.042749 
L 171.229711 164.490056 
L 171.839658 164.421554 
L 172.449605 164.829463 
L 173.059552 164.286731 
L 176.109288 165.114134 
L 177.329182 164.977051 
L 177.939129 165.136475 
L 178.549077 164.842745 
L 179.768971 164.711142 
L 180.988865 164.139607 
L 182.20876 164.017522 
L 182.818707 164.175402 
L 184.038601 163.622941 
L 184.648548 163.780437 
L 185.258495 163.508756 
L 186.47839 164.243924 
L 187.088337 164.395488 
L 187.698284 163.916241 
L 188.308231 164.067924 
L 189.528126 164.780791 
L 191.357967 165.2135 
L 191.967914 164.94893 
L 192.577861 165.09109 
L 193.187809 165.030714 
L 195.01765 165.448491 
L 195.627597 165.387598 
L 196.237544 165.130451 
L 196.847492 165.267428 
L 197.457439 165.598279 
L 198.067386 165.537797 
L 199.28728 165.803486 
L 200.507175 166.44638 
L 201.117122 166.383564 
L 201.727069 166.699808 
L 202.337016 166.824916 
L 202.946963 166.573634 
L 203.55691 166.137591 
L 204.166858 166.263481 
L 204.776805 166.573634 
L 205.386752 166.512118 
L 205.996699 166.634899 
L 206.606646 166.390609 
L 207.216593 166.330597 
L 207.826541 166.089542 
L 209.046435 165.973415 
L 209.656382 166.274734 
L 210.266329 166.216399 
L 210.876276 166.514331 
L 212.096171 166.750131 
L 213.316065 166.281799 
L 213.926012 166.399218 
L 215.145907 166.285206 
L 215.755854 166.401246 
L 216.365801 166.172949 
L 216.975748 166.288533 
L 217.585695 166.573634 
L 218.195642 166.517049 
L 218.80559 166.630008 
L 220.025484 166.517691 
L 220.635431 166.629371 
L 221.245378 166.573634 
L 223.07522 166.903094 
L 223.685167 166.847171 
L 224.295114 166.464625 
L 224.905061 166.410717 
L 225.515008 166.519527 
L 226.734903 167.057077 
L 227.34485 167.00181 
L 227.954797 167.106929 
L 229.784639 166.942951 
L 230.394586 167.046791 
L 231.004533 166.835573 
L 232.224427 166.729692 
L 232.834374 166.832822 
L 233.444322 166.625295 
L 234.054269 166.882502 
L 235.274163 166.471392 
L 237.104005 166.776031 
L 237.713952 166.724913 
L 239.543793 167.47215 
L 242.593529 167.948183 
L 243.203476 167.894719 
L 244.423371 168.080488 
L 245.033318 168.02711 
L 245.643265 168.263837 
L 246.253212 168.210214 
L 246.863159 168.013 
L 247.473106 167.960537 
L 248.083054 167.76539 
L 248.693001 167.714054 
L 249.302948 167.378855 
L 249.912895 167.329076 
L 250.522842 166.856025 
L 251.132789 166.808214 
L 251.742737 166.901013 
L 252.962631 166.527162 
L 254.182525 166.989304 
L 256.012367 167.259997 
L 256.622314 167.212273 
L 257.232261 167.301267 
L 258.452155 167.206427 
L 259.062103 167.294633 
L 260.891944 167.15415 
L 261.501891 166.840762 
L 262.111838 166.795576 
L 262.721786 166.617893 
L 263.94168 167.057554 
L 264.551627 166.880673 
L 265.161574 166.967234 
L 265.771521 166.660845 
L 266.381469 166.74754 
L 266.991416 166.573634 
L 267.601363 166.530416 
L 268.21131 166.358148 
L 268.821257 166.444716 
L 269.431204 166.659334 
L 270.041152 166.744537 
L 273.090887 166.531516 
L 274.310782 166.699278 
L 274.920729 166.531874 
L 275.530676 166.490346 
L 277.970465 166.820727 
L 278.580412 166.53257 
L 279.190359 166.614592 
L 279.800306 166.818686 
L 282.240095 167.139185 
L 282.850042 166.9765 
L 283.459989 166.93523 
L 284.069936 167.014396 
L 284.679884 166.973246 
L 285.289831 167.051874 
L 285.899778 167.01085 
L 286.509725 167.088962 
L 287.729619 167.007357 
L 288.339567 167.084859 
L 288.949514 166.926621 
L 289.559461 166.534519 
L 290.169408 166.495609 
L 290.779355 166.690371 
L 291.99925 166.612345 
L 293.219144 166.304081 
L 294.439038 166.458713 
L 295.048985 166.306168 
L 295.658933 166.38308 
L 297.488774 166.838376 
L 298.098721 166.799976 
L 299.318616 166.948962 
L 299.928563 166.910576 
L 300.53851 166.536295 
L 304.198193 166.316123 
L 306.637982 166.500785 
L 307.857876 166.537388 
L 308.467823 166.284357 
L 309.07777 166.248993 
L 311.517559 166.859425 
L 313.957348 167.033615 
L 314.567295 166.891323 
L 318.836925 167.268037 
L 319.446872 167.33569 
L 320.056819 167.195684 
L 320.666766 167.366627 
L 322.496608 167.361133 
L 324.326449 167.763753 
L 326.156291 167.755621 
L 326.766238 167.314906 
L 327.376185 167.380465 
L 329.206027 167.074494 
L 330.425921 167.105491 
L 331.035868 167.270137 
L 334.085604 167.000034 
L 334.695551 166.67182 
L 335.915446 166.899468 
L 336.525393 166.671171 
L 337.745287 166.703116 
L 340.795023 166.157368 
L 342.624865 166.064609 
L 345.6746 166.762498 
L 347.504442 166.761298 
L 349.334283 167.133087 
L 350.554178 167.161705 
L 351.164125 167.314906 
L 353.603914 167.094363 
L 355.433755 166.817175 
L 357.263597 166.997224 
L 357.873544 166.784998 
L 358.483491 166.93523 
L 359.093438 166.814212 
L 359.703385 166.963782 
L 360.92328 166.812754 
L 362.143174 166.484329 
L 363.363068 166.69224 
L 363.363068 166.69224 
" clip-path="url(#pcf855e209c)" style="fill: none; stroke: #2ca02c; stroke-width: 1.5; stroke-linecap: square"/>
   </g>
   <g id="line2d_16">
    <path d="M 58.999432 240.700909 
L 59.609379 218.462727 
L 60.219326 211.049998 
L 60.829273 207.343635 
L 61.43922 196.224545 
L 62.049168 181.399088 
L 62.659115 177.163244 
L 63.269062 173.986361 
L 63.879009 171.515452 
L 64.488956 165.09109 
L 65.098903 171.96471 
L 66.318798 175.69699 
L 66.928745 180.340127 
L 67.538692 178.434 
L 68.758586 180.527002 
L 69.368534 176.45727 
L 70.588428 178.434 
L 71.198375 175.045322 
L 71.808322 173.986361 
L 72.418269 171.085732 
L 73.028217 172.133181 
L 73.638164 169.538729 
L 74.248111 172.275732 
L 74.858058 169.868182 
L 75.468005 166.044157 
L 76.077952 167.084859 
L 76.6879 169.538729 
L 77.907794 171.206591 
L 78.517741 167.921408 
L 79.127688 166.137591 
L 79.737635 168.267973 
L 80.347583 165.338183 
L 82.177424 160.871537 
L 82.787371 162.867274 
L 83.397319 163.680865 
L 84.007266 165.514673 
L 84.617213 161.057186 
L 85.22716 161.856449 
L 85.837107 161.631816 
L 86.447054 160.450081 
L 87.057002 161.211235 
L 87.666949 160.087497 
L 88.276896 161.732673 
L 88.886843 162.42251 
L 90.716685 161.818301 
L 91.936579 164.68676 
L 93.156473 164.232777 
L 93.76642 165.551191 
L 94.376368 166.071078 
L 94.986315 161.38473 
L 95.596262 160.497633 
L 96.206209 161.791234 
L 96.816156 161.631816 
L 97.426103 162.172328 
L 98.036051 162.011956 
L 98.645998 159.834791 
L 99.255945 159.714098 
L 99.865892 158.942889 
L 101.085786 160.00808 
L 101.695734 159.891741 
L 102.915628 158.450102 
L 103.525575 158.359531 
L 104.135522 157.678363 
L 104.745469 158.770767 
L 106.575311 160.19306 
L 107.185258 160.087497 
L 108.405152 160.968894 
L 109.0151 161.929517 
L 110.234994 162.736461 
L 110.844941 162.091519 
L 112.674783 163.242072 
L 113.28473 163.114367 
L 114.504624 163.834153 
L 115.114571 163.225954 
L 115.724518 163.576999 
L 116.334466 164.388834 
L 116.944413 164.257159 
L 117.55436 164.586718 
L 118.164307 164.001875 
L 118.774254 163.8781 
L 119.384201 164.646326 
L 121.214043 165.566083 
L 121.82399 165.005562 
L 122.433937 164.879302 
L 123.043884 165.175007 
L 124.263779 164.926364 
L 124.873726 165.2135 
L 125.483673 165.09109 
L 126.09362 165.371572 
L 126.703567 166.044157 
L 127.313515 165.917645 
L 129.143356 166.701439 
L 129.753303 167.333914 
L 130.36325 167.578753 
L 130.973198 168.193222 
L 131.583145 168.426821 
L 133.412986 168.020025 
L 134.022933 168.247481 
L 134.632881 168.115481 
L 135.242828 168.691556 
L 137.072669 169.331858 
L 137.682616 169.196604 
L 138.292564 169.402925 
L 138.902511 169.943059 
L 139.512458 170.140664 
L 140.122405 170.667232 
L 140.732352 170.527094 
L 141.342299 170.061976 
L 141.952247 169.9283 
L 142.562194 170.118853 
L 143.172141 169.986688 
L 143.782088 170.491789 
L 144.392035 170.674297 
L 145.001982 170.227796 
L 145.61193 170.098567 
L 146.221877 170.280001 
L 146.831824 170.765664 
L 147.441771 170.635407 
L 148.051718 170.809478 
L 148.661665 171.28172 
L 149.271613 171.150622 
L 149.88156 171.31778 
L 151.101454 170.475075 
L 152.321348 170.809478 
L 152.931296 170.686505 
L 153.541243 170.280001 
L 154.761137 170.045421 
L 155.371084 170.489794 
L 156.590979 169.704476 
L 159.030767 170.347389 
L 159.640714 169.699485 
L 160.860609 169.485782 
L 161.470556 169.907171 
L 162.080503 170.061976 
L 162.69045 169.954883 
L 163.300397 169.331858 
L 163.910345 169.7444 
L 164.520292 169.89658 
L 165.130239 169.538729 
L 165.740186 169.690353 
L 166.350133 169.086422 
L 166.96008 169.238888 
L 167.570028 169.141172 
L 168.789922 169.931892 
L 170.009816 169.73316 
L 172.449605 170.299817 
L 174.279446 171.411414 
L 174.889394 171.308469 
L 175.499341 171.669886 
L 176.719235 171.00599 
L 178.549077 171.390027 
L 179.159024 171.290826 
L 180.378918 171.540166 
L 180.988865 171.441695 
L 181.598812 171.124026 
L 182.20876 171.247668 
L 182.818707 171.152086 
L 183.428654 171.491348 
L 184.038601 171.395508 
L 185.258495 171.63425 
L 185.868443 171.539099 
L 186.47839 171.656651 
L 187.088337 171.351508 
L 187.698284 171.259041 
L 188.308231 171.376248 
L 188.918178 171.076692 
L 189.528126 171.193661 
L 190.138073 170.485911 
L 190.74802 169.989637 
L 191.357967 169.905965 
L 191.967914 170.026141 
L 193.187809 169.458225 
L 195.01765 169.22104 
L 195.627597 169.538729 
L 197.457439 168.719425 
L 198.067386 168.839535 
L 198.677333 168.57185 
L 199.28728 168.691556 
L 199.897227 168.618528 
L 201.117122 169.234613 
L 201.727069 168.970945 
L 202.337016 168.897963 
L 202.946963 168.63794 
L 203.55691 168.940723 
L 204.166858 169.054882 
L 205.386752 168.542159 
L 205.996699 168.472763 
L 206.606646 168.03788 
L 207.216593 167.971121 
L 207.826541 168.086439 
L 208.436488 167.658422 
L 209.046435 167.774079 
L 209.656382 167.350774 
L 210.266329 167.466735 
L 210.876276 167.225959 
L 212.096171 167.103118 
L 212.706118 167.394019 
L 213.316065 167.507521 
L 213.926012 167.44572 
L 214.535959 167.036929 
L 215.145907 166.804384 
L 215.755854 166.401246 
L 216.975748 166.288533 
L 217.585695 165.892003 
L 218.195642 165.668265 
L 218.80559 165.784452 
L 219.415537 165.73128 
L 220.025484 166.014187 
L 220.635431 166.127756 
L 221.245378 165.907326 
L 221.855325 165.52258 
L 222.465273 165.636712 
L 223.07522 165.914729 
L 223.685167 165.862451 
L 224.295114 165.647044 
L 224.905061 165.10738 
L 225.515008 165.058629 
L 226.124956 164.68676 
L 226.734903 164.478736 
L 227.34485 164.432774 
L 227.954797 164.067175 
L 228.564744 164.023023 
L 229.174691 163.820341 
L 229.784639 163.777375 
L 230.394586 163.892435 
L 231.004533 163.849522 
L 231.61448 163.493698 
L 232.834374 163.411564 
L 233.444322 163.680865 
L 234.054269 163.330569 
L 235.88411 163.669678 
L 237.104005 163.588306 
L 237.713952 163.850595 
L 239.543793 164.177603 
L 240.15374 164.434392 
L 240.763688 164.540716 
L 241.373635 164.349818 
L 241.983582 164.307952 
L 242.593529 164.56091 
L 243.813423 164.476615 
L 244.423371 164.289057 
L 245.033318 164.248073 
L 246.253212 163.589293 
L 246.863159 163.550973 
L 247.473106 163.65637 
L 248.083054 163.475068 
L 248.693001 163.580035 
L 249.302948 163.400138 
L 251.132789 163.289518 
L 251.742737 162.972499 
L 252.962631 162.902128 
L 254.182525 162.555523 
L 254.792472 162.521962 
L 256.012367 162.729999 
L 256.622314 162.696212 
L 257.842208 162.085197 
L 258.452155 162.053683 
L 259.062103 162.157542 
L 259.67205 162.126002 
L 260.281997 162.22902 
L 260.891944 162.197446 
L 261.501891 162.433193 
L 262.721786 162.634934 
L 263.94168 161.778463 
L 264.551627 161.748785 
L 265.771521 161.95158 
L 266.381469 161.921663 
L 266.991416 161.761868 
L 267.601363 161.732673 
L 268.21131 161.832941 
L 268.821257 161.803707 
L 270.041152 161.489405 
L 270.651099 161.589215 
L 271.870993 161.278829 
L 272.48094 161.505105 
L 273.090887 161.477389 
L 273.700835 161.701816 
L 274.920729 161.395168 
L 276.140623 161.590288 
L 276.75057 161.438565 
L 277.970465 161.631816 
L 278.580412 161.850848 
L 279.190359 161.9458 
L 279.800306 162.162758 
L 280.410253 162.134147 
L 281.020201 161.983836 
L 281.630148 161.712831 
L 282.240095 161.806868 
L 282.850042 162.021254 
L 283.459989 161.993412 
L 284.069936 161.84552 
L 284.679884 161.818301 
L 285.289831 162.030354 
L 286.509725 161.737525 
L 287.729619 161.920967 
L 288.339567 161.893987 
L 288.949514 161.984803 
L 289.559461 161.957796 
L 290.169408 162.04797 
L 290.779355 162.020936 
L 291.389302 162.110474 
L 291.99925 161.851166 
L 292.609197 161.940684 
L 293.829091 161.88787 
L 294.439038 161.746744 
L 295.048985 161.835605 
L 295.658933 161.809672 
L 296.26888 161.897917 
L 297.488774 161.84613 
L 298.708668 161.681986 
L 299.318616 161.882037 
L 299.928563 161.856449 
L 303.588246 162.480043 
L 306.028034 161.936118 
L 308.467823 162.162162 
L 311.517559 162.143863 
L 315.787189 162.814579 
L 317.007083 163.077067 
L 317.617031 162.841109 
L 318.836925 162.893313 
L 319.446872 162.867274 
L 320.056819 163.048702 
L 321.886661 163.073184 
L 323.716502 163.19957 
L 324.936397 163.248932 
L 325.546344 163.425766 
L 327.376185 163.44718 
L 329.206027 163.568476 
L 330.425921 163.615193 
L 332.255763 163.833072 
L 332.86571 163.707382 
L 334.695551 164.119088 
L 337.745287 164.081146 
L 339.575129 164.290323 
L 340.185076 164.166906 
L 340.795023 164.236143 
L 342.014917 163.89549 
L 344.454706 164.17122 
L 345.6746 164.024037 
L 346.284548 164.09226 
L 347.504442 163.852511 
L 348.114389 164.014295 
L 351.164125 163.793864 
L 352.384019 163.651605 
L 355.433755 163.894701 
L 360.313332 163.788251 
L 362.143174 164.162267 
L 362.753121 163.959127 
L 363.363068 163.934705 
L 363.363068 163.934705 
" clip-path="url(#pcf855e209c)" style="fill: none; stroke: #d62728; stroke-width: 1.5; stroke-linecap: square"/>
   </g>
   <g id="line2d_17">
    <path d="M 58.999432 240.700909 
L 59.609379 196.224545 
L 60.219326 166.573634 
L 60.829273 162.867274 
L 61.43922 169.538729 
L 62.049168 173.986361 
L 62.659115 177.163244 
L 63.269062 185.105455 
L 64.488956 187.329274 
L 65.098903 192.18124 
L 66.318798 192.803286 
L 66.928745 183.51701 
L 67.538692 184.364183 
L 68.758586 180.527002 
L 69.368534 181.399088 
L 69.978481 177.497654 
L 70.588428 176.210184 
L 71.808322 178.02967 
L 73.028217 179.545908 
L 73.638164 176.654948 
L 74.858058 178.104547 
L 75.468005 177.163244 
L 76.077952 174.753195 
L 76.6879 168.056185 
L 77.297847 166.095394 
L 77.907794 165.647044 
L 79.127688 167.44572 
L 79.737635 164.455712 
L 80.347583 166.573634 
L 80.95753 166.172949 
L 82.787371 168.426821 
L 83.397319 169.104814 
L 84.007266 167.632595 
L 85.22716 166.910576 
L 85.837107 165.585276 
L 86.447054 167.218224 
L 87.057002 166.88907 
L 88.276896 164.455712 
L 88.886843 165.09109 
L 89.49679 164.829463 
L 90.716685 167.692541 
L 91.326632 167.397273 
L 93.76642 169.385362 
L 94.986315 170.280001 
L 95.596262 169.976197 
L 96.816156 170.809478 
L 97.426103 171.901537 
L 98.036051 171.591483 
L 98.645998 172.638594 
L 100.475839 171.730315 
L 101.695734 172.420297 
L 102.305681 173.368639 
L 102.915628 172.463204 
L 103.525575 170.981203 
L 104.745469 171.645503 
L 105.355417 171.387097 
L 105.965364 171.705522 
L 107.185258 171.206591 
L 107.795205 171.515452 
L 108.405152 169.647208 
L 109.0151 168.895696 
L 110.234994 169.538729 
L 110.844941 169.331858 
L 111.454888 169.640971 
L 112.064835 169.437646 
L 112.674783 169.738621 
L 113.28473 170.527094 
L 113.894677 170.809478 
L 114.504624 170.118853 
L 115.724518 169.72799 
L 117.55436 170.547467 
L 118.164307 170.35564 
L 118.774254 171.066201 
L 119.384201 171.31778 
L 119.994149 171.124026 
L 120.604096 170.498019 
L 121.214043 170.315982 
L 121.82399 170.992761 
L 123.653832 170.453197 
L 124.263779 171.103639 
L 124.873726 170.518021 
L 127.313515 169.853601 
L 128.533409 170.31223 
L 129.143356 170.152196 
L 129.753303 170.375033 
L 130.36325 170.971017 
L 130.973198 171.183229 
L 131.583145 171.762545 
L 132.193092 170.861988 
L 132.803039 171.434444 
L 133.412986 171.27439 
L 134.022933 171.475601 
L 134.632881 170.60616 
L 135.242828 170.456491 
L 135.852775 169.608768 
L 137.072669 170.021416 
L 137.682616 169.880853 
L 138.292564 169.402925 
L 139.512458 169.137434 
L 140.122405 168.343838 
L 140.732352 168.220911 
L 141.342299 167.772753 
L 143.172141 168.386824 
L 143.782088 168.267973 
L 144.392035 167.835377 
L 145.001982 168.035302 
L 145.61193 167.921408 
L 146.221877 168.117953 
L 146.831824 168.618528 
L 148.051718 168.994121 
L 148.661665 168.87759 
L 149.271613 168.464134 
L 149.88156 168.945707 
L 150.491507 169.126366 
L 151.101454 169.012035 
L 151.711401 169.189891 
L 152.321348 169.654253 
L 153.541243 169.424683 
L 154.15119 169.595387 
L 155.371084 170.489794 
L 156.590979 170.256977 
L 157.200926 169.868182 
L 159.030767 170.347389 
L 160.250662 170.124646 
L 160.860609 169.750517 
L 161.470556 169.117651 
L 162.080503 169.015475 
L 162.69045 168.654402 
L 163.300397 169.07328 
L 163.910345 168.716045 
L 165.130239 169.538729 
L 165.740186 169.18494 
L 166.96008 169.988491 
L 167.570028 169.886586 
L 168.789922 170.177613 
L 169.399869 169.831976 
L 170.009816 169.976197 
L 170.619763 169.635417 
L 171.229711 169.779141 
L 173.059552 169.491415 
L 173.669499 169.162208 
L 174.279446 169.304639 
L 175.499341 169.12176 
L 176.109288 168.801294 
L 177.329182 169.082558 
L 177.939129 168.767196 
L 179.768971 169.181129 
L 181.598812 170.243304 
L 182.818707 169.625933 
L 183.428654 169.755687 
L 184.038601 169.236462 
L 184.648548 168.292528 
L 185.258495 168.640644 
L 186.47839 168.056185 
L 187.698284 168.321921 
L 188.308231 168.035302 
L 188.918178 168.374861 
L 189.528126 168.297525 
L 190.138073 168.426821 
L 190.74802 168.759879 
L 193.797756 168.37673 
L 195.01765 168.625374 
L 195.627597 168.352692 
L 196.237544 168.476017 
L 197.457439 168.329284 
L 198.067386 168.645316 
L 199.897227 169.001942 
L 200.507175 168.927893 
L 201.117122 168.664403 
L 201.727069 168.213899 
L 203.55691 168.566972 
L 204.166858 168.124415 
L 204.776805 168.056185 
L 205.386752 168.173061 
L 205.996699 167.921408 
L 206.606646 168.220911 
L 207.216593 167.971121 
L 207.826541 168.267973 
L 208.436488 168.381621 
L 209.046435 168.13421 
L 210.266329 168.002595 
L 210.876276 168.115481 
L 211.486224 167.87308 
L 212.096171 167.809092 
L 213.316065 168.032836 
L 213.926012 167.620142 
L 214.535959 167.384402 
L 215.145907 167.323562 
L 216.365801 167.546736 
L 216.975748 167.485975 
L 217.585695 167.596084 
L 218.195642 167.365838 
L 218.80559 167.475563 
L 219.415537 167.415989 
L 220.025484 167.18903 
L 221.855325 167.514056 
L 222.465273 167.290106 
L 223.07522 167.232546 
L 223.685167 167.339527 
L 224.295114 167.60924 
L 224.905061 167.714054 
L 226.734903 167.540513 
L 227.954797 167.746873 
L 228.564744 167.530114 
L 229.784639 167.417791 
L 230.394586 167.677662 
L 232.834374 168.076916 
L 233.444322 168.020025 
L 234.054269 168.117953 
L 234.664216 168.369109 
L 235.88411 168.25487 
L 236.494057 168.502977 
L 237.713952 168.086439 
L 238.323899 168.031053 
L 238.933846 168.126304 
L 239.543793 167.771653 
L 240.15374 167.568633 
L 240.763688 167.515719 
L 241.373635 167.314906 
L 241.983582 167.410952 
L 242.593529 167.359092 
L 243.813423 167.548996 
L 244.423371 167.351364 
L 245.033318 167.300372 
L 245.643265 167.394589 
L 246.253212 167.343789 
L 246.863159 167.149384 
L 247.473106 167.386642 
L 249.302948 167.663048 
L 250.522842 168.126781 
L 251.132789 168.215695 
L 251.742737 168.163749 
L 252.352684 167.972261 
L 252.962631 167.921408 
L 253.572578 167.453898 
L 254.182525 167.543528 
L 254.792472 167.770725 
L 256.622314 167.62282 
L 257.232261 167.710561 
L 257.842208 167.933768 
L 258.452155 168.020025 
L 259.062103 167.700189 
L 259.67205 167.786631 
L 260.281997 167.738171 
L 261.501891 167.90926 
L 262.111838 167.860879 
L 262.721786 167.945545 
L 263.331733 167.764966 
L 263.94168 167.84942 
L 264.551627 168.064953 
L 265.161574 168.148022 
L 265.771521 168.099787 
L 266.381469 167.921408 
L 266.991416 168.004166 
L 268.21131 167.651066 
L 268.821257 167.73389 
L 269.431204 167.687689 
L 270.041152 167.769923 
L 270.651099 167.723889 
L 271.870993 167.886746 
L 272.48094 167.840771 
L 273.090887 168.047761 
L 274.920729 167.910015 
L 275.530676 167.614747 
L 277.970465 167.438456 
L 278.580412 167.518191 
L 279.190359 167.351768 
L 281.020201 167.22352 
L 281.630148 167.302758 
L 282.240095 167.502749 
L 283.459989 167.417361 
L 284.069936 167.134599 
L 284.679884 167.213008 
L 285.289831 166.812754 
L 285.899778 166.891608 
L 286.509725 166.732197 
L 288.949514 166.573634 
L 290.169408 166.963782 
L 291.389302 167.116976 
L 291.99925 167.3091 
L 292.609197 167.26858 
L 293.219144 167.459313 
L 295.048985 166.993943 
L 295.658933 166.954755 
L 296.26888 167.029805 
L 296.878827 166.876968 
L 297.488774 167.065295 
L 298.098721 167.026325 
L 299.318616 167.174158 
L 299.928563 167.022892 
L 301.148457 167.169631 
L 302.978299 166.610609 
L 306.028034 166.975313 
L 308.467823 166.93523 
L 309.687717 166.969461 
L 310.297665 166.932606 
L 310.907612 167.110793 
L 311.517559 166.859425 
L 312.737453 166.89361 
L 313.3474 166.857377 
L 314.567295 167.209012 
L 317.617031 166.922472 
L 318.226978 166.782447 
L 319.446872 167.023939 
L 321.276714 167.020811 
L 321.886661 167.191363 
L 322.496608 167.052981 
L 324.936397 167.218224 
L 325.546344 167.08136 
L 326.766238 167.314906 
L 328.59608 166.908296 
L 329.815974 167.239949 
L 331.035868 167.071134 
L 332.255763 167.300047 
L 333.475657 167.428316 
L 334.085604 167.295229 
L 336.525393 167.451459 
L 337.745287 167.382884 
L 339.575129 167.763535 
L 340.185076 167.825137 
L 341.40497 167.659987 
L 342.624865 167.782582 
L 343.234812 167.557764 
L 344.454706 167.680015 
L 345.6746 167.234641 
L 346.894495 167.263192 
L 348.724336 166.978534 
L 351.164125 166.94427 
L 354.823808 167.214241 
L 355.433755 167.091155 
L 356.043702 167.150856 
L 356.653649 167.028406 
L 358.483491 167.296826 
L 359.703385 167.503975 
L 360.92328 167.171434 
L 363.363068 167.40386 
L 363.363068 167.40386 
" clip-path="url(#pcf855e209c)" style="fill: none; stroke: #9467bd; stroke-width: 1.5; stroke-linecap: square"/>
   </g>
   <g id="line2d_18">
    <path d="M 58.999432 196.224545 
L 59.609379 196.224545 
L 60.219326 181.399088 
L 60.829273 151.74818 
L 61.43922 133.957639 
L 62.049168 129.51 
L 62.659115 139.040649 
L 63.269062 151.74818 
L 65.708851 151.74818 
L 66.318798 155.169439 
L 66.928745 161.278829 
L 67.538692 160.643451 
L 68.148639 162.867274 
L 69.368534 156.689998 
L 69.978481 151.74818 
L 70.588428 149.524364 
L 71.198375 149.630259 
L 71.808322 151.74818 
L 72.418269 147.880673 
L 73.028217 151.74818 
L 73.638164 153.527239 
L 74.248111 151.74818 
L 74.858058 155.042728 
L 75.468005 154.925063 
L 76.077952 156.349186 
L 76.6879 154.713275 
L 77.297847 154.617627 
L 77.907794 155.917842 
L 78.517741 155.791489 
L 79.127688 156.980694 
L 79.737635 156.831197 
L 80.347583 155.454547 
L 80.95753 156.556434 
L 81.567477 154.089045 
L 82.787371 151.74818 
L 84.007266 151.74818 
L 85.837107 154.713275 
L 86.447054 155.615695 
L 87.057002 153.640794 
L 87.666949 155.454547 
L 88.276896 156.286589 
L 88.886843 153.527239 
L 89.49679 154.364437 
L 90.106737 156.024757 
L 90.716685 154.265714 
L 92.546526 151.74818 
L 93.156473 153.308757 
L 93.76642 152.515015 
L 94.376368 152.502018 
L 95.596262 155.393786 
L 96.206209 153.182901 
L 96.816156 151.74818 
L 98.645998 153.769831 
L 99.255945 153.739663 
L 99.865892 155.018504 
L 100.475839 153.681938 
L 101.085786 153.654314 
L 103.525575 155.955407 
L 104.745469 155.844688 
L 105.355417 155.21387 
L 105.965364 155.169439 
L 106.575311 154.00015 
L 107.185258 153.972003 
L 107.795205 154.493633 
L 109.0151 156.570922 
L 110.234994 156.457446 
L 110.844941 155.88552 
L 111.454888 154.815518 
L 112.064835 155.286076 
L 112.674783 155.246325 
L 113.28473 155.701633 
L 113.894677 155.169439 
L 114.504624 155.132252 
L 116.944413 158.697612 
L 117.55436 158.625969 
L 121.214043 160.816177 
L 121.82399 161.584304 
L 123.043884 162.237887 
L 123.653832 162.139853 
L 124.263779 162.455455 
L 124.873726 161.541146 
L 126.703567 161.278829 
L 127.313515 161.588088 
L 128.533409 162.963963 
L 129.753303 162.772236 
L 130.36325 162.301896 
L 130.973198 162.213207 
L 131.583145 161.38473 
L 132.193092 161.672662 
L 132.803039 161.22675 
L 133.412986 161.872885 
L 134.022933 161.432554 
L 134.632881 161.710889 
L 135.242828 162.33779 
L 137.072669 162.091519 
L 138.292564 162.612639 
L 138.902511 162.530332 
L 139.512458 162.783668 
L 140.122405 162.369403 
L 140.732352 162.949634 
L 141.342299 163.194308 
L 143.172141 161.987342 
L 143.782088 162.549585 
L 144.392035 162.472978 
L 145.001982 163.023882 
L 145.61193 163.25605 
L 146.831824 163.097321 
L 147.441771 163.32422 
L 148.051718 162.942914 
L 149.271613 162.792648 
L 150.491507 163.235451 
L 151.101454 163.159878 
L 151.711401 163.375987 
L 152.321348 163.8781 
L 152.931296 163.799842 
L 154.761137 164.415503 
L 155.371084 164.056107 
L 155.981031 164.257159 
L 157.200926 164.102725 
L 157.810873 163.754073 
L 159.640714 164.340884 
L 160.860609 164.190977 
L 161.470556 164.380523 
L 162.080503 164.306216 
L 162.69045 164.492873 
L 163.300397 164.418771 
L 163.910345 164.602624 
L 164.520292 164.273138 
L 165.130239 164.455712 
L 165.740186 164.130806 
L 166.96008 163.991675 
L 167.570028 163.674808 
L 168.179975 163.608546 
L 168.789922 163.297292 
L 169.399869 163.722585 
L 170.009816 163.171072 
L 170.619763 163.108992 
L 171.229711 163.528406 
L 171.839658 163.704194 
L 173.059552 163.576999 
L 173.669499 163.749738 
L 174.889394 163.624068 
L 175.499341 163.098918 
L 176.109288 163.501002 
L 176.719235 163.669678 
L 177.329182 163.608546 
L 177.939129 163.321112 
L 178.549077 163.262366 
L 179.159024 163.428842 
L 179.768971 163.370148 
L 180.378918 163.534418 
L 180.988865 163.475777 
L 181.598812 163.197542 
L 182.818707 163.085292 
L 183.428654 162.813035 
L 184.038601 162.975223 
L 184.648548 163.35071 
L 185.258495 163.294933 
L 185.868443 163.452488 
L 186.47839 163.184963 
L 187.698284 163.496654 
L 188.308231 163.859118 
L 188.918178 163.386856 
L 189.528126 163.125859 
L 190.138073 163.485003 
L 190.74802 163.430916 
L 191.357967 163.173305 
L 192.577861 163.069439 
L 193.187809 163.42071 
L 193.797756 163.568476 
L 195.01765 162.668714 
L 195.627597 162.42251 
L 197.457439 162.867274 
L 199.28728 162.145255 
L 199.897227 162.10044 
L 200.507175 162.246894 
L 201.117122 162.011956 
L 201.727069 162.346804 
L 202.337016 162.301896 
L 202.946963 162.632694 
L 203.55691 162.586958 
L 204.166858 162.727706 
L 204.776805 162.31132 
L 205.386752 162.082937 
L 206.606646 162.729999 
L 207.216593 162.867274 
L 207.826541 162.458815 
L 208.436488 162.415279 
L 209.046435 162.552157 
L 209.656382 162.508594 
L 210.266329 162.286759 
L 210.876276 162.42251 
L 211.486224 162.379981 
L 212.096171 162.1613 
L 212.706118 162.471732 
L 213.926012 162.736461 
L 214.535959 163.041007 
L 215.145907 162.82401 
L 215.755854 162.953465 
L 216.365801 162.9102 
L 217.585695 163.165485 
L 218.195642 163.461422 
L 220.025484 163.328819 
L 220.635431 162.950873 
L 221.855325 163.199186 
L 222.465273 163.487296 
L 223.07522 163.279093 
L 223.685167 163.236538 
L 224.295114 163.357821 
L 226.734903 163.189562 
L 227.34485 163.308824 
L 227.954797 163.107256 
L 229.174691 163.026115 
L 229.784639 162.827701 
L 230.394586 162.472978 
L 231.004533 162.435082 
L 231.61448 162.554059 
L 232.224427 162.360085 
L 232.834374 162.322984 
L 234.054269 162.558406 
L 234.664216 162.367104 
L 235.274163 162.63722 
L 235.88411 162.446965 
L 237.104005 162.981121 
L 237.713952 162.942914 
L 238.323899 162.754196 
L 238.933846 162.416498 
L 239.543793 162.68008 
L 240.15374 162.643397 
L 241.373635 162.867274 
L 241.983582 162.830332 
L 242.593529 162.646366 
L 243.203476 162.90397 
L 243.813423 162.867274 
L 244.423371 163.122466 
L 245.643265 163.338111 
L 246.253212 163.589293 
L 246.863159 163.694909 
L 247.473106 163.512898 
L 248.083054 163.761091 
L 248.693001 163.722585 
L 249.302948 163.968525 
L 249.912895 163.646316 
L 250.522842 163.749738 
L 251.132789 163.711763 
L 251.742737 163.814323 
L 252.352684 164.056107 
L 254.182525 164.356744 
L 254.792472 164.041341 
L 255.40242 164.00328 
L 256.622314 163.654163 
L 257.232261 163.754073 
L 257.842208 163.989382 
L 258.452155 163.816464 
L 259.67205 163.743323 
L 260.281997 163.975822 
L 260.891944 164.072955 
L 261.501891 163.902383 
L 262.111838 163.865991 
L 263.331733 164.323341 
L 263.94168 164.418008 
L 264.551627 164.643694 
L 266.381469 164.921532 
L 266.991416 164.883013 
L 269.431204 165.245345 
L 270.651099 164.912161 
L 271.261046 165.129324 
L 271.870993 165.218166 
L 273.700835 164.725703 
L 274.310782 164.814684 
L 274.920729 164.777875 
L 276.140623 164.954047 
L 276.75057 164.792926 
L 277.360518 164.384917 
L 277.970465 164.226275 
L 278.580412 164.191706 
L 279.190359 163.911608 
L 279.800306 163.8781 
L 280.410253 163.600401 
L 281.020201 163.689779 
L 281.630148 163.900196 
L 282.240095 163.624704 
L 283.459989 163.8014 
L 284.069936 164.009231 
L 284.679884 163.856302 
L 285.289831 163.943314 
L 285.899778 163.910621 
L 286.509725 163.997017 
L 287.729619 163.931868 
L 288.339567 164.017522 
L 288.949514 163.985067 
L 290.169408 164.388834 
L 290.779355 164.23892 
L 291.389302 164.322652 
L 292.609197 164.720454 
L 293.219144 164.571236 
L 293.829091 164.653238 
L 295.048985 164.930612 
L 295.658933 165.011056 
L 296.878827 164.715715 
L 297.488774 164.342256 
L 298.098721 164.536548 
L 299.928563 164.439667 
L 300.53851 164.519734 
L 301.758404 164.344244 
L 302.368351 164.312757 
L 304.198193 164.771035 
L 306.028034 164.455712 
L 306.637982 164.533771 
L 307.857876 164.362503 
L 309.687717 164.918364 
L 310.907612 164.85474 
L 311.517559 164.608814 
L 312.737453 164.547138 
L 313.3474 164.729322 
L 317.617031 164.515512 
L 318.836925 164.768192 
L 320.666766 164.884226 
L 321.276714 164.75055 
L 322.496608 164.793211 
L 323.106555 164.250757 
L 323.716502 164.222013 
L 324.326449 163.785361 
L 325.546344 163.831946 
L 328.59608 163.795958 
L 329.206027 163.868993 
L 330.425921 163.714917 
L 331.645815 163.760773 
L 333.475657 163.8781 
L 336.525393 163.842629 
L 338.965181 164.027523 
L 340.795023 163.755842 
L 342.014917 163.991138 
L 342.624865 164.155752 
L 343.234812 164.033945 
L 344.454706 163.412558 
L 345.064653 163.482372 
L 345.6746 163.363031 
L 346.894495 163.596007 
L 347.504442 163.758679 
L 348.724336 163.614776 
L 349.944231 163.658173 
L 352.993966 163.995294 
L 353.603914 163.8781 
L 358.483491 164.313658 
L 359.703385 164.172751 
L 363.363068 164.468424 
L 363.363068 164.468424 
" clip-path="url(#pcf855e209c)" style="fill: none; stroke: #8c564b; stroke-width: 1.5; stroke-linecap: square"/>
   </g>
   <g id="line2d_19">
    <path d="M 43.78125 166.425382 
L 378.58125 166.425382 
" clip-path="url(#pcf855e209c)" style="fill: none; stroke-dasharray: 5.55,2.4; stroke-dashoffset: 0; stroke: #000000; stroke-width: 1.5"/>
   </g>
   <g id="patch_3">
    <path d="M 43.78125 251.82 
L 43.78125 7.2 
" style="fill: none; stroke: #000000; stroke-width: 0.8; stroke-linejoin: miter; stroke-linecap: square"/>
   </g>
   <g id="patch_4">
    <path d="M 378.58125 251.82 
L 378.58125 7.2 
" style="fill: none; stroke: #000000; stroke-width: 0.8; stroke-linejoin: miter; stroke-linecap: square"/>
   </g>
   <g id="patch_5">
    <path d="M 43.78125 251.82 
L 378.58125 251.82 
" style="fill: none; stroke: #000000; stroke-width: 0.8; stroke-linejoin: miter; stroke-linecap: square"/>
   </g>
   <g id="patch_6">
    <path d="M 43.78125 7.2 
L 378.58125 7.2 
" style="fill: none; stroke: #000000; stroke-width: 0.8; stroke-linejoin: miter; stroke-linecap: square"/>
   </g>
   <g id="legend_1">
    <g id="patch_7">
     <path d="M 295.726562 103.26875 
L 371.58125 103.26875 
Q 373.58125 103.26875 373.58125 101.26875 
L 373.58125 14.2 
Q 373.58125 12.2 371.58125 12.2 
L 295.726562 12.2 
Q 293.726562 12.2 293.726562 14.2 
L 293.726562 101.26875 
Q 293.726562 103.26875 295.726562 103.26875 
z
" style="fill: #ffffff; opacity: 0.8; stroke: #cccccc; stroke-linejoin: miter"/>
    </g>
    <g id="line2d_20">
     <path d="M 297.726562 20.298437 
L 307.726562 20.298437 
L 317.726562 20.298437 
" style="fill: none; stroke: #1f77b4; stroke-width: 1.5; stroke-linecap: square"/>
    </g>
    <g id="text_15">
     <!-- P(die=1) -->
     <g transform="translate(325.726562 23.798437)scale(0.1 -0.1)">
      <defs>
       <path id="DejaVuSans-50" d="M 1259 4147 
L 1259 2394 
L 2053 2394 
Q 2494 2394 2734 2622 
Q 2975 2850 2975 3272 
Q 2975 3691 2734 3919 
Q 2494 4147 2053 4147 
L 1259 4147 
z
M 628 4666 
L 2053 4666 
Q 2838 4666 3239 4311 
Q 3641 3956 3641 3272 
Q 3641 2581 3239 2228 
Q 2838 1875 2053 1875 
L 1259 1875 
L 1259 0 
L 628 0 
L 628 4666 
z
" transform="scale(0.015625)"/>
       <path id="DejaVuSans-28" d="M 1984 4856 
Q 1566 4138 1362 3434 
Q 1159 2731 1159 2009 
Q 1159 1288 1364 580 
Q 1569 -128 1984 -844 
L 1484 -844 
Q 1016 -109 783 600 
Q 550 1309 550 2009 
Q 550 2706 781 3412 
Q 1013 4119 1484 4856 
L 1984 4856 
z
" transform="scale(0.015625)"/>
       <path id="DejaVuSans-3d" d="M 678 2906 
L 4684 2906 
L 4684 2381 
L 678 2381 
L 678 2906 
z
M 678 1631 
L 4684 1631 
L 4684 1100 
L 678 1100 
L 678 1631 
z
" transform="scale(0.015625)"/>
       <path id="DejaVuSans-29" d="M 513 4856 
L 1013 4856 
Q 1481 4119 1714 3412 
Q 1947 2706 1947 2009 
Q 1947 1309 1714 600 
Q 1481 -109 1013 -844 
L 513 -844 
Q 928 -128 1133 580 
Q 1338 1288 1338 2009 
Q 1338 2731 1133 3434 
Q 928 4138 513 4856 
z
" transform="scale(0.015625)"/>
      </defs>
      <use xlink:href="#DejaVuSans-50"/>
      <use xlink:href="#DejaVuSans-28" x="60.302734"/>
      <use xlink:href="#DejaVuSans-64" x="99.316406"/>
      <use xlink:href="#DejaVuSans-69" x="162.792969"/>
      <use xlink:href="#DejaVuSans-65" x="190.576172"/>
      <use xlink:href="#DejaVuSans-3d" x="252.099609"/>
      <use xlink:href="#DejaVuSans-31" x="335.888672"/>
      <use xlink:href="#DejaVuSans-29" x="399.511719"/>
     </g>
    </g>
    <g id="line2d_21">
     <path d="M 297.726562 34.976562 
L 307.726562 34.976562 
L 317.726562 34.976562 
" style="fill: none; stroke: #ff7f0e; stroke-width: 1.5; stroke-linecap: square"/>
    </g>
    <g id="text_16">
     <!-- P(die=2) -->
     <g transform="translate(325.726562 38.476562)scale(0.1 -0.1)">
      <use xlink:href="#DejaVuSans-50"/>
      <use xlink:href="#DejaVuSans-28" x="60.302734"/>
      <use xlink:href="#DejaVuSans-64" x="99.316406"/>
      <use xlink:href="#DejaVuSans-69" x="162.792969"/>
      <use xlink:href="#DejaVuSans-65" x="190.576172"/>
      <use xlink:href="#DejaVuSans-3d" x="252.099609"/>
      <use xlink:href="#DejaVuSans-32" x="335.888672"/>
      <use xlink:href="#DejaVuSans-29" x="399.511719"/>
     </g>
    </g>
    <g id="line2d_22">
     <path d="M 297.726562 49.654687 
L 307.726562 49.654687 
L 317.726562 49.654687 
" style="fill: none; stroke: #2ca02c; stroke-width: 1.5; stroke-linecap: square"/>
    </g>
    <g id="text_17">
     <!-- P(die=3) -->
     <g transform="translate(325.726562 53.154687)scale(0.1 -0.1)">
      <use xlink:href="#DejaVuSans-50"/>
      <use xlink:href="#DejaVuSans-28" x="60.302734"/>
      <use xlink:href="#DejaVuSans-64" x="99.316406"/>
      <use xlink:href="#DejaVuSans-69" x="162.792969"/>
      <use xlink:href="#DejaVuSans-65" x="190.576172"/>
      <use xlink:href="#DejaVuSans-3d" x="252.099609"/>
      <use xlink:href="#DejaVuSans-33" x="335.888672"/>
      <use xlink:href="#DejaVuSans-29" x="399.511719"/>
     </g>
    </g>
    <g id="line2d_23">
     <path d="M 297.726562 64.332812 
L 307.726562 64.332812 
L 317.726562 64.332812 
" style="fill: none; stroke: #d62728; stroke-width: 1.5; stroke-linecap: square"/>
    </g>
    <g id="text_18">
     <!-- P(die=4) -->
     <g transform="translate(325.726562 67.832812)scale(0.1 -0.1)">
      <use xlink:href="#DejaVuSans-50"/>
      <use xlink:href="#DejaVuSans-28" x="60.302734"/>
      <use xlink:href="#DejaVuSans-64" x="99.316406"/>
      <use xlink:href="#DejaVuSans-69" x="162.792969"/>
      <use xlink:href="#DejaVuSans-65" x="190.576172"/>
      <use xlink:href="#DejaVuSans-3d" x="252.099609"/>
      <use xlink:href="#DejaVuSans-34" x="335.888672"/>
      <use xlink:href="#DejaVuSans-29" x="399.511719"/>
     </g>
    </g>
    <g id="line2d_24">
     <path d="M 297.726562 79.010937 
L 307.726562 79.010937 
L 317.726562 79.010937 
" style="fill: none; stroke: #9467bd; stroke-width: 1.5; stroke-linecap: square"/>
    </g>
    <g id="text_19">
     <!-- P(die=5) -->
     <g transform="translate(325.726562 82.510937)scale(0.1 -0.1)">
      <use xlink:href="#DejaVuSans-50"/>
      <use xlink:href="#DejaVuSans-28" x="60.302734"/>
      <use xlink:href="#DejaVuSans-64" x="99.316406"/>
      <use xlink:href="#DejaVuSans-69" x="162.792969"/>
      <use xlink:href="#DejaVuSans-65" x="190.576172"/>
      <use xlink:href="#DejaVuSans-3d" x="252.099609"/>
      <use xlink:href="#DejaVuSans-35" x="335.888672"/>
      <use xlink:href="#DejaVuSans-29" x="399.511719"/>
     </g>
    </g>
    <g id="line2d_25">
     <path d="M 297.726562 93.689062 
L 307.726562 93.689062 
L 317.726562 93.689062 
" style="fill: none; stroke: #8c564b; stroke-width: 1.5; stroke-linecap: square"/>
    </g>
    <g id="text_20">
     <!-- P(die=6) -->
     <g transform="translate(325.726562 97.189062)scale(0.1 -0.1)">
      <defs>
       <path id="DejaVuSans-36" d="M 2113 2584 
Q 1688 2584 1439 2293 
Q 1191 2003 1191 1497 
Q 1191 994 1439 701 
Q 1688 409 2113 409 
Q 2538 409 2786 701 
Q 3034 994 3034 1497 
Q 3034 2003 2786 2293 
Q 2538 2584 2113 2584 
z
M 3366 4563 
L 3366 3988 
Q 3128 4100 2886 4159 
Q 2644 4219 2406 4219 
Q 1781 4219 1451 3797 
Q 1122 3375 1075 2522 
Q 1259 2794 1537 2939 
Q 1816 3084 2150 3084 
Q 2853 3084 3261 2657 
Q 3669 2231 3669 1497 
Q 3669 778 3244 343 
Q 2819 -91 2113 -91 
Q 1303 -91 875 529 
Q 447 1150 447 2328 
Q 447 3434 972 4092 
Q 1497 4750 2381 4750 
Q 2619 4750 2861 4703 
Q 3103 4656 3366 4563 
z
" transform="scale(0.015625)"/>
      </defs>
      <use xlink:href="#DejaVuSans-50"/>
      <use xlink:href="#DejaVuSans-28" x="60.302734"/>
      <use xlink:href="#DejaVuSans-64" x="99.316406"/>
      <use xlink:href="#DejaVuSans-69" x="162.792969"/>
      <use xlink:href="#DejaVuSans-65" x="190.576172"/>
      <use xlink:href="#DejaVuSans-3d" x="252.099609"/>
      <use xlink:href="#DejaVuSans-36" x="335.888672"/>
      <use xlink:href="#DejaVuSans-29" x="399.511719"/>
     </g>
    </g>
   </g>
  </g>
 </g>
 <defs>
  <clipPath id="pcf855e209c">
   <rect x="43.78125" y="7.2" width="334.8" height="244.62"/>
  </clipPath>
 </defs>
</svg>
